<?xml version="1.0" encoding="utf-8" standalone="no"?>
<!DOCTYPE svg PUBLIC "-//W3C//DTD SVG 1.1//EN"
  "http://www.w3.org/Graphics/SVG/1.1/DTD/svg11.dtd">
<svg xmlns:xlink="http://www.w3.org/1999/xlink" width="663.3pt" height="392.064608pt" viewBox="0 0 663.3 392.064608" xmlns="http://www.w3.org/2000/svg" version="1.1">
 <metadata>
  <rdf:RDF xmlns:dc="http://purl.org/dc/elements/1.1/" xmlns:cc="http://creativecommons.org/ns#" xmlns:rdf="http://www.w3.org/1999/02/22-rdf-syntax-ns#">
   <cc:Work>
    <dc:type rdf:resource="http://purl.org/dc/dcmitype/StillImage"/>
    <dc:date>2026-10-02T11:46:06.011643</dc:date>
    <dc:format>image/svg+xml</dc:format>
    <dc:creator>
     <cc:Agent>
      <dc:title>Matplotlib v3.11.2, https://matplotlib.org/</dc:title>
     </cc:Agent>
    </dc:creator>
   </cc:Work>
  </rdf:RDF>
 </metadata>
 <defs>
  <style type="text/css">*{stroke-linejoin: round; stroke-linecap: butt}</style>
 </defs>
 <g id="figure_1">
  <g id="patch_1">
   <path d="M 0 392.064608 
L 663.3 392.064608 
L 663.3 0 
L 0 0 
L 0 392.064608 
z
" style="fill: none"/>
  </g>
  <g id="axes_1">
   <g id="patch_2">
    <path d="M 17.166071 57.744179 
L 26.527941 57.744179 
Q 29.149265 57.744179 29.149265 55.122856 
L 29.149265 45.760986 
Q 29.149265 43.139662 26.527941 43.139662 
L 17.166071 43.139662 
Q 14.544748 43.139662 14.544748 45.760986 
L 14.544748 55.122856 
Q 14.544748 57.744179 17.166071 57.744179 
z
" clip-path="url(#p804a0bce38)" style="fill: #e66767"/>
   </g>
   <g id="patch_3">
    <path d="M 35.889811 57.744179 
L 45.251681 57.744179 
Q 47.873004 57.744179 47.873004 55.122856 
L 47.873004 45.760986 
Q 47.873004 43.139662 45.251681 43.139662 
L 35.889811 43.139662 
Q 33.268487 43.139662 33.268487 45.760986 
L 33.268487 55.122856 
Q 33.268487 57.744179 35.889811 57.744179 
z
" clip-path="url(#p804a0bce38)" style="fill: #e66767"/>
   </g>
   <g id="patch_4">
    <path d="M 54.61355 57.744179 
L 63.97542 57.744179 
Q 66.596744 57.744179 66.596744 55.122856 
L 66.596744 45.760986 
Q 66.596744 43.139662 63.97542 43.139662 
L 54.61355 43.139662 
Q 51.992227 43.139662 51.992227 45.760986 
L 51.992227 55.122856 
Q 51.992227 57.744179 54.61355 57.744179 
z
" clip-path="url(#p804a0bce38)" style="fill: #e66767"/>
   </g>
   <g id="patch_5">
    <path d="M 73.33729 57.744179 
L 82.69916 57.744179 
Q 85.320483 57.744179 85.320483 55.122856 
L 85.320483 45.760986 
Q 85.320483 43.139662 82.69916 43.139662 
L 73.33729 43.139662 
Q 70.715966 43.139662 70.715966 45.760986 
L 70.715966 55.122856 
Q 70.715966 57.744179 73.33729 57.744179 
z
" clip-path="url(#p804a0bce38)" style="fill: #e66767"/>
   </g>
   <g id="patch_6">
    <path d="M 92.061029 57.744179 
L 101.422899 57.744179 
Q 104.044223 57.744179 104.044223 55.122856 
L 104.044223 45.760986 
Q 104.044223 43.139662 101.422899 43.139662 
L 92.061029 43.139662 
Q 89.439706 43.139662 89.439706 45.760986 
L 89.439706 55.122856 
Q 89.439706 57.744179 92.061029 57.744179 
z
" clip-path="url(#p804a0bce38)" style="fill: #2c4a72"/>
   </g>
   <g id="patch_7">
    <path d="M 110.784769 57.744179 
L 120.146639 57.744179 
Q 122.767962 57.744179 122.767962 55.122856 
L 122.767962 45.760986 
Q 122.767962 43.139662 120.146639 43.139662 
L 110.784769 43.139662 
Q 108.163445 43.139662 108.163445 45.760986 
L 108.163445 55.122856 
Q 108.163445 57.744179 110.784769 57.744179 
z
" clip-path="url(#p804a0bce38)" style="fill: #2c4a72"/>
   </g>
   <g id="patch_8">
    <path d="M 129.508508 57.744179 
L 138.870378 57.744179 
Q 141.491702 57.744179 141.491702 55.122856 
L 141.491702 45.760986 
Q 141.491702 43.139662 138.870378 43.139662 
L 129.508508 43.139662 
Q 126.887185 43.139662 126.887185 45.760986 
L 126.887185 55.122856 
Q 126.887185 57.744179 129.508508 57.744179 
z
" clip-path="url(#p804a0bce38)" style="fill: #2c4a72"/>
   </g>
   <g id="patch_9">
    <path d="M 148.232248 57.744179 
L 157.594118 57.744179 
Q 160.215441 57.744179 160.215441 55.122856 
L 160.215441 45.760986 
Q 160.215441 43.139662 157.594118 43.139662 
L 148.232248 43.139662 
Q 145.610924 43.139662 145.610924 45.760986 
L 145.610924 55.122856 
Q 145.610924 57.744179 148.232248 57.744179 
z
" clip-path="url(#p804a0bce38)" style="fill: #2c4a72"/>
   </g>
   <g id="patch_10">
    <path d="M 166.955987 57.744179 
L 176.317857 57.744179 
Q 178.939181 57.744179 178.939181 55.122856 
L 178.939181 45.760986 
Q 178.939181 43.139662 176.317857 43.139662 
L 166.955987 43.139662 
Q 164.334664 43.139662 164.334664 45.760986 
L 164.334664 55.122856 
Q 164.334664 57.744179 166.955987 57.744179 
z
" clip-path="url(#p804a0bce38)" style="fill: #2c4a72"/>
   </g>
   <g id="patch_11">
    <path d="M 185.679727 57.744179 
L 195.041597 57.744179 
Q 197.66292 57.744179 197.66292 55.122856 
L 197.66292 45.760986 
Q 197.66292 43.139662 195.041597 43.139662 
L 185.679727 43.139662 
Q 183.058403 43.139662 183.058403 45.760986 
L 183.058403 55.122856 
Q 183.058403 57.744179 185.679727 57.744179 
z
" clip-path="url(#p804a0bce38)" style="fill: #2c4a72"/>
   </g>
   <g id="patch_12">
    <path d="M 17.166071 76.467919 
L 26.527941 76.467919 
Q 29.149265 76.467919 29.149265 73.846595 
L 29.149265 64.484725 
Q 29.149265 61.863402 26.527941 61.863402 
L 17.166071 61.863402 
Q 14.544748 61.863402 14.544748 64.484725 
L 14.544748 73.846595 
Q 14.544748 76.467919 17.166071 76.467919 
z
" clip-path="url(#p804a0bce38)" style="fill: #2c4a72"/>
   </g>
   <g id="patch_13">
    <path d="M 35.889811 76.467919 
L 45.251681 76.467919 
Q 47.873004 76.467919 47.873004 73.846595 
L 47.873004 64.484725 
Q 47.873004 61.863402 45.251681 61.863402 
L 35.889811 61.863402 
Q 33.268487 61.863402 33.268487 64.484725 
L 33.268487 73.846595 
Q 33.268487 76.467919 35.889811 76.467919 
z
" clip-path="url(#p804a0bce38)" style="fill: #2c4a72"/>
   </g>
   <g id="patch_14">
    <path d="M 54.61355 76.467919 
L 63.97542 76.467919 
Q 66.596744 76.467919 66.596744 73.846595 
L 66.596744 64.484725 
Q 66.596744 61.863402 63.97542 61.863402 
L 54.61355 61.863402 
Q 51.992227 61.863402 51.992227 64.484725 
L 51.992227 73.846595 
Q 51.992227 76.467919 54.61355 76.467919 
z
" clip-path="url(#p804a0bce38)" style="fill: #2c4a72"/>
   </g>
   <g id="patch_15">
    <path d="M 73.33729 76.467919 
L 82.69916 76.467919 
Q 85.320483 76.467919 85.320483 73.846595 
L 85.320483 64.484725 
Q 85.320483 61.863402 82.69916 61.863402 
L 73.33729 61.863402 
Q 70.715966 61.863402 70.715966 64.484725 
L 70.715966 73.846595 
Q 70.715966 76.467919 73.33729 76.467919 
z
" clip-path="url(#p804a0bce38)" style="fill: #2c4a72"/>
   </g>
   <g id="patch_16">
    <path d="M 92.061029 76.467919 
L 101.422899 76.467919 
Q 104.044223 76.467919 104.044223 73.846595 
L 104.044223 64.484725 
Q 104.044223 61.863402 101.422899 61.863402 
L 92.061029 61.863402 
Q 89.439706 61.863402 89.439706 64.484725 
L 89.439706 73.846595 
Q 89.439706 76.467919 92.061029 76.467919 
z
" clip-path="url(#p804a0bce38)" style="fill: #2c4a72"/>
   </g>
   <g id="patch_17">
    <path d="M 110.784769 76.467919 
L 120.146639 76.467919 
Q 122.767962 76.467919 122.767962 73.846595 
L 122.767962 64.484725 
Q 122.767962 61.863402 120.146639 61.863402 
L 110.784769 61.863402 
Q 108.163445 61.863402 108.163445 64.484725 
L 108.163445 73.846595 
Q 108.163445 76.467919 110.784769 76.467919 
z
" clip-path="url(#p804a0bce38)" style="fill: #2c4a72"/>
   </g>
   <g id="patch_18">
    <path d="M 129.508508 76.467919 
L 138.870378 76.467919 
Q 141.491702 76.467919 141.491702 73.846595 
L 141.491702 64.484725 
Q 141.491702 61.863402 138.870378 61.863402 
L 129.508508 61.863402 
Q 126.887185 61.863402 126.887185 64.484725 
L 126.887185 73.846595 
Q 126.887185 76.467919 129.508508 76.467919 
z
" clip-path="url(#p804a0bce38)" style="fill: #2c4a72"/>
   </g>
   <g id="patch_19">
    <path d="M 148.232248 76.467919 
L 157.594118 76.467919 
Q 160.215441 76.467919 160.215441 73.846595 
L 160.215441 64.484725 
Q 160.215441 61.863402 157.594118 61.863402 
L 148.232248 61.863402 
Q 145.610924 61.863402 145.610924 64.484725 
L 145.610924 73.846595 
Q 145.610924 76.467919 148.232248 76.467919 
z
" clip-path="url(#p804a0bce38)" style="fill: #2c4a72"/>
   </g>
   <g id="patch_20">
    <path d="M 166.955987 76.467919 
L 176.317857 76.467919 
Q 178.939181 76.467919 178.939181 73.846595 
L 178.939181 64.484725 
Q 178.939181 61.863402 176.317857 61.863402 
L 166.955987 61.863402 
Q 164.334664 61.863402 164.334664 64.484725 
L 164.334664 73.846595 
Q 164.334664 76.467919 166.955987 76.467919 
z
" clip-path="url(#p804a0bce38)" style="fill: #2c4a72"/>
   </g>
   <g id="patch_21">
    <path d="M 185.679727 76.467919 
L 195.041597 76.467919 
Q 197.66292 76.467919 197.66292 73.846595 
L 197.66292 64.484725 
Q 197.66292 61.863402 195.041597 61.863402 
L 185.679727 61.863402 
Q 183.058403 61.863402 183.058403 64.484725 
L 183.058403 73.846595 
Q 183.058403 76.467919 185.679727 76.467919 
z
" clip-path="url(#p804a0bce38)" style="fill: #2c4a72"/>
   </g>
   <g id="patch_22">
    <path d="M 17.166071 95.191658 
L 26.527941 95.191658 
Q 29.149265 95.191658 29.149265 92.570334 
L 29.149265 83.208465 
Q 29.149265 80.587141 26.527941 80.587141 
L 17.166071 80.587141 
Q 14.544748 80.587141 14.544748 83.208465 
L 14.544748 92.570334 
Q 14.544748 95.191658 17.166071 95.191658 
z
" clip-path="url(#p804a0bce38)" style="fill: #2c4a72"/>
   </g>
   <g id="patch_23">
    <path d="M 35.889811 95.191658 
L 45.251681 95.191658 
Q 47.873004 95.191658 47.873004 92.570334 
L 47.873004 83.208465 
Q 47.873004 80.587141 45.251681 80.587141 
L 35.889811 80.587141 
Q 33.268487 80.587141 33.268487 83.208465 
L 33.268487 92.570334 
Q 33.268487 95.191658 35.889811 95.191658 
z
" clip-path="url(#p804a0bce38)" style="fill: #2c4a72"/>
   </g>
   <g id="patch_24">
    <path d="M 54.61355 95.191658 
L 63.97542 95.191658 
Q 66.596744 95.191658 66.596744 92.570334 
L 66.596744 83.208465 
Q 66.596744 80.587141 63.97542 80.587141 
L 54.61355 80.587141 
Q 51.992227 80.587141 51.992227 83.208465 
L 51.992227 92.570334 
Q 51.992227 95.191658 54.61355 95.191658 
z
" clip-path="url(#p804a0bce38)" style="fill: #2c4a72"/>
   </g>
   <g id="patch_25">
    <path d="M 73.33729 95.191658 
L 82.69916 95.191658 
Q 85.320483 95.191658 85.320483 92.570334 
L 85.320483 83.208465 
Q 85.320483 80.587141 82.69916 80.587141 
L 73.33729 80.587141 
Q 70.715966 80.587141 70.715966 83.208465 
L 70.715966 92.570334 
Q 70.715966 95.191658 73.33729 95.191658 
z
" clip-path="url(#p804a0bce38)" style="fill: #2c4a72"/>
   </g>
   <g id="patch_26">
    <path d="M 92.061029 95.191658 
L 101.422899 95.191658 
Q 104.044223 95.191658 104.044223 92.570334 
L 104.044223 83.208465 
Q 104.044223 80.587141 101.422899 80.587141 
L 92.061029 80.587141 
Q 89.439706 80.587141 89.439706 83.208465 
L 89.439706 92.570334 
Q 89.439706 95.191658 92.061029 95.191658 
z
" clip-path="url(#p804a0bce38)" style="fill: #2c4a72"/>
   </g>
   <g id="patch_27">
    <path d="M 110.784769 95.191658 
L 120.146639 95.191658 
Q 122.767962 95.191658 122.767962 92.570334 
L 122.767962 83.208465 
Q 122.767962 80.587141 120.146639 80.587141 
L 110.784769 80.587141 
Q 108.163445 80.587141 108.163445 83.208465 
L 108.163445 92.570334 
Q 108.163445 95.191658 110.784769 95.191658 
z
" clip-path="url(#p804a0bce38)" style="fill: #2c4a72"/>
   </g>
   <g id="patch_28">
    <path d="M 129.508508 95.191658 
L 138.870378 95.191658 
Q 141.491702 95.191658 141.491702 92.570334 
L 141.491702 83.208465 
Q 141.491702 80.587141 138.870378 80.587141 
L 129.508508 80.587141 
Q 126.887185 80.587141 126.887185 83.208465 
L 126.887185 92.570334 
Q 126.887185 95.191658 129.508508 95.191658 
z
" clip-path="url(#p804a0bce38)" style="fill: #2c4a72"/>
   </g>
   <g id="patch_29">
    <path d="M 148.232248 95.191658 
L 157.594118 95.191658 
Q 160.215441 95.191658 160.215441 92.570334 
L 160.215441 83.208465 
Q 160.215441 80.587141 157.594118 80.587141 
L 148.232248 80.587141 
Q 145.610924 80.587141 145.610924 83.208465 
L 145.610924 92.570334 
Q 145.610924 95.191658 148.232248 95.191658 
z
" clip-path="url(#p804a0bce38)" style="fill: #2c4a72"/>
   </g>
   <g id="patch_30">
    <path d="M 166.955987 95.191658 
L 176.317857 95.191658 
Q 178.939181 95.191658 178.939181 92.570334 
L 178.939181 83.208465 
Q 178.939181 80.587141 176.317857 80.587141 
L 166.955987 80.587141 
Q 164.334664 80.587141 164.334664 83.208465 
L 164.334664 92.570334 
Q 164.334664 95.191658 166.955987 95.191658 
z
" clip-path="url(#p804a0bce38)" style="fill: #2c4a72"/>
   </g>
   <g id="patch_31">
    <path d="M 185.679727 95.191658 
L 195.041597 95.191658 
Q 197.66292 95.191658 197.66292 92.570334 
L 197.66292 83.208465 
Q 197.66292 80.587141 195.041597 80.587141 
L 185.679727 80.587141 
Q 183.058403 80.587141 183.058403 83.208465 
L 183.058403 92.570334 
Q 183.058403 95.191658 185.679727 95.191658 
z
" clip-path="url(#p804a0bce38)" style="fill: #2c4a72"/>
   </g>
   <g id="patch_32">
    <path d="M 17.166071 113.915398 
L 26.527941 113.915398 
Q 29.149265 113.915398 29.149265 111.294074 
L 29.149265 101.932204 
Q 29.149265 99.310881 26.527941 99.310881 
L 17.166071 99.310881 
Q 14.544748 99.310881 14.544748 101.932204 
L 14.544748 111.294074 
Q 14.544748 113.915398 17.166071 113.915398 
z
" clip-path="url(#p804a0bce38)" style="fill: #2c4a72"/>
   </g>
   <g id="patch_33">
    <path d="M 35.889811 113.915398 
L 45.251681 113.915398 
Q 47.873004 113.915398 47.873004 111.294074 
L 47.873004 101.932204 
Q 47.873004 99.310881 45.251681 99.310881 
L 35.889811 99.310881 
Q 33.268487 99.310881 33.268487 101.932204 
L 33.268487 111.294074 
Q 33.268487 113.915398 35.889811 113.915398 
z
" clip-path="url(#p804a0bce38)" style="fill: #2c4a72"/>
   </g>
   <g id="patch_34">
    <path d="M 54.61355 113.915398 
L 63.97542 113.915398 
Q 66.596744 113.915398 66.596744 111.294074 
L 66.596744 101.932204 
Q 66.596744 99.310881 63.97542 99.310881 
L 54.61355 99.310881 
Q 51.992227 99.310881 51.992227 101.932204 
L 51.992227 111.294074 
Q 51.992227 113.915398 54.61355 113.915398 
z
" clip-path="url(#p804a0bce38)" style="fill: #2c4a72"/>
   </g>
   <g id="patch_35">
    <path d="M 73.33729 113.915398 
L 82.69916 113.915398 
Q 85.320483 113.915398 85.320483 111.294074 
L 85.320483 101.932204 
Q 85.320483 99.310881 82.69916 99.310881 
L 73.33729 99.310881 
Q 70.715966 99.310881 70.715966 101.932204 
L 70.715966 111.294074 
Q 70.715966 113.915398 73.33729 113.915398 
z
" clip-path="url(#p804a0bce38)" style="fill: #2c4a72"/>
   </g>
   <g id="patch_36">
    <path d="M 92.061029 113.915398 
L 101.422899 113.915398 
Q 104.044223 113.915398 104.044223 111.294074 
L 104.044223 101.932204 
Q 104.044223 99.310881 101.422899 99.310881 
L 92.061029 99.310881 
Q 89.439706 99.310881 89.439706 101.932204 
L 89.439706 111.294074 
Q 89.439706 113.915398 92.061029 113.915398 
z
" clip-path="url(#p804a0bce38)" style="fill: #2c4a72"/>
   </g>
   <g id="patch_37">
    <path d="M 110.784769 113.915398 
L 120.146639 113.915398 
Q 122.767962 113.915398 122.767962 111.294074 
L 122.767962 101.932204 
Q 122.767962 99.310881 120.146639 99.310881 
L 110.784769 99.310881 
Q 108.163445 99.310881 108.163445 101.932204 
L 108.163445 111.294074 
Q 108.163445 113.915398 110.784769 113.915398 
z
" clip-path="url(#p804a0bce38)" style="fill: #2c4a72"/>
   </g>
   <g id="patch_38">
    <path d="M 129.508508 113.915398 
L 138.870378 113.915398 
Q 141.491702 113.915398 141.491702 111.294074 
L 141.491702 101.932204 
Q 141.491702 99.310881 138.870378 99.310881 
L 129.508508 99.310881 
Q 126.887185 99.310881 126.887185 101.932204 
L 126.887185 111.294074 
Q 126.887185 113.915398 129.508508 113.915398 
z
" clip-path="url(#p804a0bce38)" style="fill: #2c4a72"/>
   </g>
   <g id="patch_39">
    <path d="M 148.232248 113.915398 
L 157.594118 113.915398 
Q 160.215441 113.915398 160.215441 111.294074 
L 160.215441 101.932204 
Q 160.215441 99.310881 157.594118 99.310881 
L 148.232248 99.310881 
Q 145.610924 99.310881 145.610924 101.932204 
L 145.610924 111.294074 
Q 145.610924 113.915398 148.232248 113.915398 
z
" clip-path="url(#p804a0bce38)" style="fill: #2c4a72"/>
   </g>
   <g id="patch_40">
    <path d="M 166.955987 113.915398 
L 176.317857 113.915398 
Q 178.939181 113.915398 178.939181 111.294074 
L 178.939181 101.932204 
Q 178.939181 99.310881 176.317857 99.310881 
L 166.955987 99.310881 
Q 164.334664 99.310881 164.334664 101.932204 
L 164.334664 111.294074 
Q 164.334664 113.915398 166.955987 113.915398 
z
" clip-path="url(#p804a0bce38)" style="fill: #2c4a72"/>
   </g>
   <g id="patch_41">
    <path d="M 185.679727 113.915398 
L 195.041597 113.915398 
Q 197.66292 113.915398 197.66292 111.294074 
L 197.66292 101.932204 
Q 197.66292 99.310881 195.041597 99.310881 
L 185.679727 99.310881 
Q 183.058403 99.310881 183.058403 101.932204 
L 183.058403 111.294074 
Q 183.058403 113.915398 185.679727 113.915398 
z
" clip-path="url(#p804a0bce38)" style="fill: #2c4a72"/>
   </g>
   <g id="patch_42">
    <path d="M 17.166071 132.639137 
L 26.527941 132.639137 
Q 29.149265 132.639137 29.149265 130.017813 
L 29.149265 120.655944 
Q 29.149265 118.03462 26.527941 118.03462 
L 17.166071 118.03462 
Q 14.544748 118.03462 14.544748 120.655944 
L 14.544748 130.017813 
Q 14.544748 132.639137 17.166071 132.639137 
z
" clip-path="url(#p804a0bce38)" style="fill: #2c4a72"/>
   </g>
   <g id="patch_43">
    <path d="M 35.889811 132.639137 
L 45.251681 132.639137 
Q 47.873004 132.639137 47.873004 130.017813 
L 47.873004 120.655944 
Q 47.873004 118.03462 45.251681 118.03462 
L 35.889811 118.03462 
Q 33.268487 118.03462 33.268487 120.655944 
L 33.268487 130.017813 
Q 33.268487 132.639137 35.889811 132.639137 
z
" clip-path="url(#p804a0bce38)" style="fill: #2c4a72"/>
   </g>
   <g id="patch_44">
    <path d="M 54.61355 132.639137 
L 63.97542 132.639137 
Q 66.596744 132.639137 66.596744 130.017813 
L 66.596744 120.655944 
Q 66.596744 118.03462 63.97542 118.03462 
L 54.61355 118.03462 
Q 51.992227 118.03462 51.992227 120.655944 
L 51.992227 130.017813 
Q 51.992227 132.639137 54.61355 132.639137 
z
" clip-path="url(#p804a0bce38)" style="fill: #2c4a72"/>
   </g>
   <g id="patch_45">
    <path d="M 73.33729 132.639137 
L 82.69916 132.639137 
Q 85.320483 132.639137 85.320483 130.017813 
L 85.320483 120.655944 
Q 85.320483 118.03462 82.69916 118.03462 
L 73.33729 118.03462 
Q 70.715966 118.03462 70.715966 120.655944 
L 70.715966 130.017813 
Q 70.715966 132.639137 73.33729 132.639137 
z
" clip-path="url(#p804a0bce38)" style="fill: #2c4a72"/>
   </g>
   <g id="patch_46">
    <path d="M 92.061029 132.639137 
L 101.422899 132.639137 
Q 104.044223 132.639137 104.044223 130.017813 
L 104.044223 120.655944 
Q 104.044223 118.03462 101.422899 118.03462 
L 92.061029 118.03462 
Q 89.439706 118.03462 89.439706 120.655944 
L 89.439706 130.017813 
Q 89.439706 132.639137 92.061029 132.639137 
z
" clip-path="url(#p804a0bce38)" style="fill: #2c4a72"/>
   </g>
   <g id="patch_47">
    <path d="M 110.784769 132.639137 
L 120.146639 132.639137 
Q 122.767962 132.639137 122.767962 130.017813 
L 122.767962 120.655944 
Q 122.767962 118.03462 120.146639 118.03462 
L 110.784769 118.03462 
Q 108.163445 118.03462 108.163445 120.655944 
L 108.163445 130.017813 
Q 108.163445 132.639137 110.784769 132.639137 
z
" clip-path="url(#p804a0bce38)" style="fill: #2c4a72"/>
   </g>
   <g id="patch_48">
    <path d="M 129.508508 132.639137 
L 138.870378 132.639137 
Q 141.491702 132.639137 141.491702 130.017813 
L 141.491702 120.655944 
Q 141.491702 118.03462 138.870378 118.03462 
L 129.508508 118.03462 
Q 126.887185 118.03462 126.887185 120.655944 
L 126.887185 130.017813 
Q 126.887185 132.639137 129.508508 132.639137 
z
" clip-path="url(#p804a0bce38)" style="fill: #2c4a72"/>
   </g>
   <g id="patch_49">
    <path d="M 148.232248 132.639137 
L 157.594118 132.639137 
Q 160.215441 132.639137 160.215441 130.017813 
L 160.215441 120.655944 
Q 160.215441 118.03462 157.594118 118.03462 
L 148.232248 118.03462 
Q 145.610924 118.03462 145.610924 120.655944 
L 145.610924 130.017813 
Q 145.610924 132.639137 148.232248 132.639137 
z
" clip-path="url(#p804a0bce38)" style="fill: #2c4a72"/>
   </g>
   <g id="patch_50">
    <path d="M 166.955987 132.639137 
L 176.317857 132.639137 
Q 178.939181 132.639137 178.939181 130.017813 
L 178.939181 120.655944 
Q 178.939181 118.03462 176.317857 118.03462 
L 166.955987 118.03462 
Q 164.334664 118.03462 164.334664 120.655944 
L 164.334664 130.017813 
Q 164.334664 132.639137 166.955987 132.639137 
z
" clip-path="url(#p804a0bce38)" style="fill: #2c4a72"/>
   </g>
   <g id="patch_51">
    <path d="M 185.679727 132.639137 
L 195.041597 132.639137 
Q 197.66292 132.639137 197.66292 130.017813 
L 197.66292 120.655944 
Q 197.66292 118.03462 195.041597 118.03462 
L 185.679727 118.03462 
Q 183.058403 118.03462 183.058403 120.655944 
L 183.058403 130.017813 
Q 183.058403 132.639137 185.679727 132.639137 
z
" clip-path="url(#p804a0bce38)" style="fill: #2c4a72"/>
   </g>
   <g id="patch_52">
    <path d="M 17.166071 151.362877 
L 26.527941 151.362877 
Q 29.149265 151.362877 29.149265 148.741553 
L 29.149265 139.379683 
Q 29.149265 136.75836 26.527941 136.75836 
L 17.166071 136.75836 
Q 14.544748 136.75836 14.544748 139.379683 
L 14.544748 148.741553 
Q 14.544748 151.362877 17.166071 151.362877 
z
" clip-path="url(#p804a0bce38)" style="fill: #2c4a72"/>
   </g>
   <g id="patch_53">
    <path d="M 35.889811 151.362877 
L 45.251681 151.362877 
Q 47.873004 151.362877 47.873004 148.741553 
L 47.873004 139.379683 
Q 47.873004 136.75836 45.251681 136.75836 
L 35.889811 136.75836 
Q 33.268487 136.75836 33.268487 139.379683 
L 33.268487 148.741553 
Q 33.268487 151.362877 35.889811 151.362877 
z
" clip-path="url(#p804a0bce38)" style="fill: #2c4a72"/>
   </g>
   <g id="patch_54">
    <path d="M 54.61355 151.362877 
L 63.97542 151.362877 
Q 66.596744 151.362877 66.596744 148.741553 
L 66.596744 139.379683 
Q 66.596744 136.75836 63.97542 136.75836 
L 54.61355 136.75836 
Q 51.992227 136.75836 51.992227 139.379683 
L 51.992227 148.741553 
Q 51.992227 151.362877 54.61355 151.362877 
z
" clip-path="url(#p804a0bce38)" style="fill: #2c4a72"/>
   </g>
   <g id="text_1">
    <!-- Swing Jazz King -->
    <g style="fill: #eef1f5" transform="translate(14.544748 24.621133) scale(0.17 -0.17)">
     <defs>
      <path id="MalgunGothicBold-35" d="M 334 1091 
Q 881 638 1588 638 
Q 2013 638 2222 786 
Q 2431 934 2431 1175 
Q 2431 1384 2256 1559 
Q 2081 1734 1409 2022 
Q 838 2278 580 2598 
Q 322 2919 322 3350 
Q 322 3972 803 4323 
Q 1284 4675 2066 4675 
Q 2766 4675 3169 4500 
L 3169 3647 
Q 2722 3953 2091 3953 
Q 1719 3953 1489 3812 
Q 1259 3672 1259 3425 
Q 1259 3228 1418 3065 
Q 1578 2903 2166 2644 
Q 2841 2350 3103 2026 
Q 3366 1703 3366 1253 
Q 3366 603 2902 261 
Q 2438 -81 1600 -81 
Q 822 -81 334 178 
L 334 1091 
z
" transform="scale(0.015625)"/>
      <path id="MalgunGothicBold-59" d="M 5028 3284 
L 4072 0 
L 3159 0 
L 2619 2050 
Q 2578 2200 2566 2434 
L 2547 2434 
Q 2528 2200 2484 2056 
L 1903 0 
L 1003 0 
L 56 3284 
L 950 3284 
L 1466 1044 
Q 1506 863 1516 700 
L 1534 700 
Q 1544 859 1591 1056 
L 2216 3284 
L 3041 3284 
L 3594 1041 
Q 3616 950 3641 694 
L 3663 694 
Q 3672 828 3716 1041 
L 4213 3284 
L 5028 3284 
z
" transform="scale(0.015625)"/>
      <path id="MalgunGothicBold-4b" d="M 375 4366 
Q 375 4566 517 4700 
Q 659 4834 884 4834 
Q 1103 4834 1250 4701 
Q 1397 4569 1397 4366 
Q 1397 4163 1251 4028 
Q 1106 3894 884 3894 
Q 663 3894 519 4031 
Q 375 4169 375 4366 
z
M 444 0 
L 444 3284 
L 1313 3284 
L 1313 0 
L 444 0 
z
" transform="scale(0.015625)"/>
      <path id="MalgunGothicBold-50" d="M 3497 0 
L 2628 0 
L 2628 1841 
Q 2628 2684 2019 2684 
Q 1713 2684 1520 2454 
Q 1328 2225 1328 1872 
L 1328 0 
L 456 0 
L 456 3284 
L 1328 3284 
L 1328 2756 
L 1338 2756 
Q 1700 3363 2403 3363 
Q 3497 3363 3497 2009 
L 3497 0 
z
" transform="scale(0.015625)"/>
      <path id="MalgunGothicBold-49" d="M 3553 341 
Q 3553 -572 3050 -1058 
Q 2547 -1544 1591 -1544 
Q 941 -1544 534 -1341 
L 534 -584 
Q 1050 -881 1569 -881 
Q 2100 -881 2392 -598 
Q 2684 -316 2684 206 
L 2684 497 
L 2672 497 
Q 2316 -81 1619 -81 
Q 1006 -81 631 359 
Q 256 800 256 1547 
Q 256 2375 667 2869 
Q 1078 3363 1750 3363 
Q 2359 3363 2672 2881 
L 2684 2881 
L 2684 3284 
L 3553 3284 
L 3553 341 
z
M 2694 1875 
Q 2694 2209 2484 2446 
Q 2275 2684 1953 2684 
Q 1578 2684 1358 2393 
Q 1138 2103 1138 1581 
Q 1138 1131 1347 865 
Q 1556 600 1903 600 
Q 2256 600 2475 865 
Q 2694 1131 2694 1550 
L 2694 1875 
z
" transform="scale(0.015625)"/>
      <path id="MalgunGothicBold-3" transform="scale(0.015625)"/>
      <path id="MalgunGothicBold-2c" d="M 2250 1772 
Q 2250 869 1840 394 
Q 1431 -81 697 -81 
Q 381 -81 97 31 
L 97 872 
Q 338 694 650 694 
Q 1363 694 1363 1803 
L 1363 4600 
L 2250 4600 
L 2250 1772 
z
" transform="scale(0.015625)"/>
      <path id="MalgunGothicBold-43" d="M 534 3075 
Q 756 3203 1109 3283 
Q 1463 3363 1744 3363 
Q 3075 3363 3075 2013 
L 3075 0 
L 2244 0 
L 2244 484 
L 2228 484 
Q 1897 -81 1244 -81 
Q 769 -81 491 186 
Q 213 453 213 903 
Q 213 1844 1331 1994 
L 2247 2119 
Q 2247 2747 1634 2747 
Q 1050 2747 534 2381 
L 534 3075 
z
M 1594 1500 
Q 1031 1428 1031 997 
Q 1031 803 1165 681 
Q 1300 559 1528 559 
Q 1841 559 2044 779 
Q 2247 1000 2247 1334 
L 2247 1584 
L 1594 1500 
z
" transform="scale(0.015625)"/>
      <path id="MalgunGothicBold-5c" d="M 2963 0 
L 91 0 
L 91 344 
L 1822 2622 
L 256 2622 
L 256 3284 
L 2956 3284 
L 2956 2881 
L 1284 663 
L 2963 663 
L 2963 0 
z
" transform="scale(0.015625)"/>
      <path id="MalgunGothicBold-2d" d="M 4188 0 
L 3041 0 
L 1575 2028 
Q 1525 2100 1453 2253 
L 1438 2253 
L 1438 0 
L 547 0 
L 547 4600 
L 1438 4600 
L 1438 2425 
L 1453 2425 
Q 1491 2513 1578 2656 
L 2978 4600 
L 4050 4600 
L 2338 2403 
L 4188 0 
z
" transform="scale(0.015625)"/>
     </defs>
     <use xlink:href="#MalgunGothicBold-35"/>
     <use xlink:href="#MalgunGothicBold-59" transform="translate(55.421875 0)"/>
     <use xlink:href="#MalgunGothicBold-4b" transform="translate(134.96875 0)"/>
     <use xlink:href="#MalgunGothicBold-50" transform="translate(162.40625 0)"/>
     <use xlink:href="#MalgunGothicBold-49" transform="translate(223.25 0)"/>
     <use xlink:href="#MalgunGothicBold-3" transform="translate(285.84375 0)"/>
     <use xlink:href="#MalgunGothicBold-2c" transform="translate(321 0)"/>
     <use xlink:href="#MalgunGothicBold-43" transform="translate(362.890625 0)"/>
     <use xlink:href="#MalgunGothicBold-5c" transform="translate(417.1875 0)"/>
     <use xlink:href="#MalgunGothicBold-5c" transform="translate(465.53125 0)"/>
     <use xlink:href="#MalgunGothicBold-3" transform="translate(513.875 0)"/>
     <use xlink:href="#MalgunGothicBold-2d" transform="translate(549.03125 0)"/>
     <use xlink:href="#MalgunGothicBold-4b" transform="translate(613.53125 0)"/>
     <use xlink:href="#MalgunGothicBold-50" transform="translate(640.96875 0)"/>
     <use xlink:href="#MalgunGothicBold-49" transform="translate(701.8125 0)"/>
    </g>
   </g>
   <g id="text_2">
    <!-- 4/53건 -->
    <g style="fill: #e66767" transform="translate(149.961362 25.319063) scale(0.17 -0.17)">
     <defs>
      <path id="MalgunGothic-17" d="M 2703 4600 
L 2703 1563 
L 3309 1563 
L 3309 1113 
L 2703 1113 
L 2703 0 
L 2213 0 
L 2213 1113 
L 50 1113 
L 50 1534 
Q 728 2297 1295 3109 
Q 1863 3922 2172 4600 
L 2703 4600 
z
M 625 1563 
L 2213 1563 
L 2213 3831 
Q 1613 2788 959 1981 
L 625 1563 
z
" transform="scale(0.015625)"/>
      <path id="MalgunGothic-12" d="M 2584 4600 
L 378 -763 
L -84 -763 
L 2113 4600 
L 2584 4600 
z
" transform="scale(0.015625)"/>
      <path id="MalgunGothic-18" d="M 3072 1403 
Q 3072 722 2636 322 
Q 2200 -78 1469 -78 
Q 828 -78 516 113 
L 516 650 
Q 994 344 1475 344 
Q 1969 344 2270 630 
Q 2572 916 2572 1372 
Q 2572 1838 2265 2092 
Q 1959 2347 1381 2347 
Q 994 2347 603 2300 
L 759 4600 
L 2869 4600 
L 2869 4147 
L 1206 4147 
L 1106 2763 
Q 1347 2784 1547 2784 
Q 2263 2784 2667 2414 
Q 3072 2044 3072 1403 
z
" transform="scale(0.015625)"/>
      <path id="MalgunGothic-16" d="M 416 719 
Q 891 344 1478 344 
Q 1959 344 2254 587 
Q 2550 831 2550 1247 
Q 2550 2169 1253 2169 
L 872 2169 
L 872 2591 
L 1234 2591 
Q 2388 2591 2388 3453 
Q 2388 4250 1509 4250 
Q 1022 4250 594 3916 
L 594 4413 
Q 1031 4675 1634 4675 
Q 2184 4675 2539 4372 
Q 2894 4069 2894 3581 
Q 2894 2678 1972 2409 
L 1972 2400 
Q 2469 2356 2764 2053 
Q 3059 1750 3059 1300 
Q 3059 672 2604 297 
Q 2150 -78 1450 -78 
Q 806 -78 416 169 
L 416 719 
z
" transform="scale(0.015625)"/>
      <path id="MalgunGothic-2a2" d="M 4947 1056 
L 4947 3078 
L 3559 3078 
L 3559 3494 
L 4947 3494 
L 4947 5466 
L 5416 5466 
L 5416 1056 
L 4947 1056 
z
M 3616 5081 
Q 3488 3963 2752 3100 
Q 2016 2238 856 1734 
L 544 2113 
Q 1509 2459 2201 3142 
Q 2894 3825 3066 4666 
L 941 4666 
L 941 5081 
L 3616 5081 
z
M 1722 -325 
L 1722 1575 
L 2188 1575 
L 2188 97 
L 5588 97 
L 5588 -325 
L 1722 -325 
z
" transform="scale(0.015625)"/>
     </defs>
     <use xlink:href="#MalgunGothic-17"/>
     <use xlink:href="#MalgunGothic-12" transform="translate(55.078125 0)"/>
     <use xlink:href="#MalgunGothic-18" transform="translate(94.671875 0)"/>
     <use xlink:href="#MalgunGothic-16" transform="translate(149.75 0)"/>
     <use xlink:href="#MalgunGothic-2a2" transform="translate(204.828125 0)"/>
    </g>
   </g>
  </g>
  <g id="axes_2">
   <g id="patch_55">
    <path d="M 242.525 57.744179 
L 251.88687 57.744179 
Q 254.508193 57.744179 254.508193 55.122856 
L 254.508193 45.760986 
Q 254.508193 43.139662 251.88687 43.139662 
L 242.525 43.139662 
Q 239.903676 43.139662 239.903676 45.760986 
L 239.903676 55.122856 
Q 239.903676 57.744179 242.525 57.744179 
z
" clip-path="url(#p515239f7e1)" style="fill: #e66767"/>
   </g>
   <g id="patch_56">
    <path d="M 261.248739 57.744179 
L 270.610609 57.744179 
Q 273.231933 57.744179 273.231933 55.122856 
L 273.231933 45.760986 
Q 273.231933 43.139662 270.610609 43.139662 
L 261.248739 43.139662 
Q 258.627416 43.139662 258.627416 45.760986 
L 258.627416 55.122856 
Q 258.627416 57.744179 261.248739 57.744179 
z
" clip-path="url(#p515239f7e1)" style="fill: #e66767"/>
   </g>
   <g id="patch_57">
    <path d="M 279.972479 57.744179 
L 289.334349 57.744179 
Q 291.955672 57.744179 291.955672 55.122856 
L 291.955672 45.760986 
Q 291.955672 43.139662 289.334349 43.139662 
L 279.972479 43.139662 
Q 277.351155 43.139662 277.351155 45.760986 
L 277.351155 55.122856 
Q 277.351155 57.744179 279.972479 57.744179 
z
" clip-path="url(#p515239f7e1)" style="fill: #2c4a72"/>
   </g>
   <g id="patch_58">
    <path d="M 298.696218 57.744179 
L 308.058088 57.744179 
Q 310.679412 57.744179 310.679412 55.122856 
L 310.679412 45.760986 
Q 310.679412 43.139662 308.058088 43.139662 
L 298.696218 43.139662 
Q 296.074895 43.139662 296.074895 45.760986 
L 296.074895 55.122856 
Q 296.074895 57.744179 298.696218 57.744179 
z
" clip-path="url(#p515239f7e1)" style="fill: #2c4a72"/>
   </g>
   <g id="patch_59">
    <path d="M 317.419958 57.744179 
L 326.781828 57.744179 
Q 329.403151 57.744179 329.403151 55.122856 
L 329.403151 45.760986 
Q 329.403151 43.139662 326.781828 43.139662 
L 317.419958 43.139662 
Q 314.798634 43.139662 314.798634 45.760986 
L 314.798634 55.122856 
Q 314.798634 57.744179 317.419958 57.744179 
z
" clip-path="url(#p515239f7e1)" style="fill: #2c4a72"/>
   </g>
   <g id="patch_60">
    <path d="M 336.143697 57.744179 
L 345.505567 57.744179 
Q 348.126891 57.744179 348.126891 55.122856 
L 348.126891 45.760986 
Q 348.126891 43.139662 345.505567 43.139662 
L 336.143697 43.139662 
Q 333.522374 43.139662 333.522374 45.760986 
L 333.522374 55.122856 
Q 333.522374 57.744179 336.143697 57.744179 
z
" clip-path="url(#p515239f7e1)" style="fill: #2c4a72"/>
   </g>
   <g id="patch_61">
    <path d="M 354.867437 57.744179 
L 364.229307 57.744179 
Q 366.85063 57.744179 366.85063 55.122856 
L 366.85063 45.760986 
Q 366.85063 43.139662 364.229307 43.139662 
L 354.867437 43.139662 
Q 352.246113 43.139662 352.246113 45.760986 
L 352.246113 55.122856 
Q 352.246113 57.744179 354.867437 57.744179 
z
" clip-path="url(#p515239f7e1)" style="fill: #2c4a72"/>
   </g>
   <g id="patch_62">
    <path d="M 373.591176 57.744179 
L 382.953046 57.744179 
Q 385.57437 57.744179 385.57437 55.122856 
L 385.57437 45.760986 
Q 385.57437 43.139662 382.953046 43.139662 
L 373.591176 43.139662 
Q 370.969853 43.139662 370.969853 45.760986 
L 370.969853 55.122856 
Q 370.969853 57.744179 373.591176 57.744179 
z
" clip-path="url(#p515239f7e1)" style="fill: #2c4a72"/>
   </g>
   <g id="patch_63">
    <path d="M 392.314916 57.744179 
L 401.676786 57.744179 
Q 404.298109 57.744179 404.298109 55.122856 
L 404.298109 45.760986 
Q 404.298109 43.139662 401.676786 43.139662 
L 392.314916 43.139662 
Q 389.693592 43.139662 389.693592 45.760986 
L 389.693592 55.122856 
Q 389.693592 57.744179 392.314916 57.744179 
z
" clip-path="url(#p515239f7e1)" style="fill: #2c4a72"/>
   </g>
   <g id="patch_64">
    <path d="M 411.038655 57.744179 
L 420.400525 57.744179 
Q 423.021849 57.744179 423.021849 55.122856 
L 423.021849 45.760986 
Q 423.021849 43.139662 420.400525 43.139662 
L 411.038655 43.139662 
Q 408.417332 43.139662 408.417332 45.760986 
L 408.417332 55.122856 
Q 408.417332 57.744179 411.038655 57.744179 
z
" clip-path="url(#p515239f7e1)" style="fill: #2c4a72"/>
   </g>
   <g id="patch_65">
    <path d="M 242.525 76.467919 
L 251.88687 76.467919 
Q 254.508193 76.467919 254.508193 73.846595 
L 254.508193 64.484725 
Q 254.508193 61.863402 251.88687 61.863402 
L 242.525 61.863402 
Q 239.903676 61.863402 239.903676 64.484725 
L 239.903676 73.846595 
Q 239.903676 76.467919 242.525 76.467919 
z
" clip-path="url(#p515239f7e1)" style="fill: #2c4a72"/>
   </g>
   <g id="patch_66">
    <path d="M 261.248739 76.467919 
L 270.610609 76.467919 
Q 273.231933 76.467919 273.231933 73.846595 
L 273.231933 64.484725 
Q 273.231933 61.863402 270.610609 61.863402 
L 261.248739 61.863402 
Q 258.627416 61.863402 258.627416 64.484725 
L 258.627416 73.846595 
Q 258.627416 76.467919 261.248739 76.467919 
z
" clip-path="url(#p515239f7e1)" style="fill: #2c4a72"/>
   </g>
   <g id="patch_67">
    <path d="M 279.972479 76.467919 
L 289.334349 76.467919 
Q 291.955672 76.467919 291.955672 73.846595 
L 291.955672 64.484725 
Q 291.955672 61.863402 289.334349 61.863402 
L 279.972479 61.863402 
Q 277.351155 61.863402 277.351155 64.484725 
L 277.351155 73.846595 
Q 277.351155 76.467919 279.972479 76.467919 
z
" clip-path="url(#p515239f7e1)" style="fill: #2c4a72"/>
   </g>
   <g id="patch_68">
    <path d="M 298.696218 76.467919 
L 308.058088 76.467919 
Q 310.679412 76.467919 310.679412 73.846595 
L 310.679412 64.484725 
Q 310.679412 61.863402 308.058088 61.863402 
L 298.696218 61.863402 
Q 296.074895 61.863402 296.074895 64.484725 
L 296.074895 73.846595 
Q 296.074895 76.467919 298.696218 76.467919 
z
" clip-path="url(#p515239f7e1)" style="fill: #2c4a72"/>
   </g>
   <g id="patch_69">
    <path d="M 317.419958 76.467919 
L 326.781828 76.467919 
Q 329.403151 76.467919 329.403151 73.846595 
L 329.403151 64.484725 
Q 329.403151 61.863402 326.781828 61.863402 
L 317.419958 61.863402 
Q 314.798634 61.863402 314.798634 64.484725 
L 314.798634 73.846595 
Q 314.798634 76.467919 317.419958 76.467919 
z
" clip-path="url(#p515239f7e1)" style="fill: #2c4a72"/>
   </g>
   <g id="patch_70">
    <path d="M 336.143697 76.467919 
L 345.505567 76.467919 
Q 348.126891 76.467919 348.126891 73.846595 
L 348.126891 64.484725 
Q 348.126891 61.863402 345.505567 61.863402 
L 336.143697 61.863402 
Q 333.522374 61.863402 333.522374 64.484725 
L 333.522374 73.846595 
Q 333.522374 76.467919 336.143697 76.467919 
z
" clip-path="url(#p515239f7e1)" style="fill: #2c4a72"/>
   </g>
   <g id="patch_71">
    <path d="M 354.867437 76.467919 
L 364.229307 76.467919 
Q 366.85063 76.467919 366.85063 73.846595 
L 366.85063 64.484725 
Q 366.85063 61.863402 364.229307 61.863402 
L 354.867437 61.863402 
Q 352.246113 61.863402 352.246113 64.484725 
L 352.246113 73.846595 
Q 352.246113 76.467919 354.867437 76.467919 
z
" clip-path="url(#p515239f7e1)" style="fill: #2c4a72"/>
   </g>
   <g id="patch_72">
    <path d="M 373.591176 76.467919 
L 382.953046 76.467919 
Q 385.57437 76.467919 385.57437 73.846595 
L 385.57437 64.484725 
Q 385.57437 61.863402 382.953046 61.863402 
L 373.591176 61.863402 
Q 370.969853 61.863402 370.969853 64.484725 
L 370.969853 73.846595 
Q 370.969853 76.467919 373.591176 76.467919 
z
" clip-path="url(#p515239f7e1)" style="fill: #2c4a72"/>
   </g>
   <g id="text_3">
    <!-- Cort Action PJ -->
    <g style="fill: #eef1f5" transform="translate(239.903676 25.319063) scale(0.17 -0.17)">
     <defs>
      <path id="MalgunGothicBold-25" d="M 3794 172 
Q 3294 -81 2494 -81 
Q 1472 -81 864 542 
Q 256 1166 256 2203 
Q 256 3291 934 3983 
Q 1613 4675 2675 4675 
Q 3344 4675 3794 4497 
L 3794 3628 
Q 3325 3900 2731 3900 
Q 2034 3900 1614 3447 
Q 1194 2994 1194 2266 
Q 1194 1550 1594 1122 
Q 1994 694 2659 694 
Q 3288 694 3794 994 
L 3794 172 
z
" transform="scale(0.015625)"/>
      <path id="MalgunGothicBold-51" d="M 256 1622 
Q 256 2428 731 2895 
Q 1206 3363 2019 3363 
Q 2803 3363 3258 2905 
Q 3713 2447 3713 1678 
Q 3713 878 3242 398 
Q 2772 -81 1969 -81 
Q 1181 -81 718 380 
Q 256 841 256 1622 
z
M 1138 1634 
Q 1138 600 1997 600 
Q 2825 600 2825 1659 
Q 2825 2684 1994 2684 
Q 1588 2684 1363 2404 
Q 1138 2125 1138 1634 
z
" transform="scale(0.015625)"/>
      <path id="MalgunGothicBold-54" d="M 2472 2481 
Q 2300 2584 2050 2584 
Q 1722 2584 1525 2317 
Q 1328 2050 1328 1600 
L 1328 0 
L 456 0 
L 456 3284 
L 1328 3284 
L 1328 2653 
L 1338 2653 
Q 1578 3341 2203 3341 
Q 2381 3341 2472 3297 
L 2472 2481 
z
" transform="scale(0.015625)"/>
      <path id="MalgunGothicBold-56" d="M 2303 34 
Q 2081 -78 1684 -78 
Q 675 -78 675 991 
L 675 2622 
L 131 2622 
L 131 3284 
L 675 3284 
L 675 4019 
L 1544 4272 
L 1544 3284 
L 2303 3284 
L 2303 2622 
L 1544 2622 
L 1544 1144 
Q 1544 600 1972 600 
Q 2150 600 2303 700 
L 2303 34 
z
" transform="scale(0.015625)"/>
      <path id="MalgunGothicBold-23" d="M 4447 0 
L 3475 0 
L 3103 1100 
L 1375 1100 
L 1013 0 
L 41 0 
L 1744 4600 
L 2772 4600 
L 4447 0 
z
M 2881 1806 
L 2319 3472 
Q 2284 3572 2247 3853 
L 2225 3853 
Q 2200 3644 2147 3478 
L 1581 1806 
L 2881 1806 
z
" transform="scale(0.015625)"/>
      <path id="MalgunGothicBold-45" d="M 2875 128 
Q 2522 -81 1909 -81 
Q 1172 -81 714 373 
Q 256 828 256 1563 
Q 256 2400 747 2881 
Q 1238 3363 2056 3363 
Q 2591 3363 2875 3206 
L 2875 2441 
Q 2544 2684 2144 2684 
Q 1688 2684 1413 2398 
Q 1138 2113 1138 1625 
Q 1138 1144 1397 872 
Q 1656 600 2109 600 
Q 2506 600 2875 850 
L 2875 128 
z
" transform="scale(0.015625)"/>
      <path id="MalgunGothicBold-32" d="M 1438 1631 
L 1438 0 
L 547 0 
L 547 4600 
L 2066 4600 
Q 3747 4600 3747 3159 
Q 3747 2463 3239 2038 
Q 2731 1613 1963 1631 
L 1438 1631 
z
M 1438 3891 
L 1438 2328 
L 1891 2328 
Q 2813 2328 2813 3125 
Q 2813 3891 1909 3891 
L 1438 3891 
z
" transform="scale(0.015625)"/>
     </defs>
     <use xlink:href="#MalgunGothicBold-25"/>
     <use xlink:href="#MalgunGothicBold-51" transform="translate(63.875 0)"/>
     <use xlink:href="#MalgunGothicBold-54" transform="translate(125.84375 0)"/>
     <use xlink:href="#MalgunGothicBold-56" transform="translate(168.28125 0)"/>
     <use xlink:href="#MalgunGothicBold-3" transform="translate(206.703125 0)"/>
     <use xlink:href="#MalgunGothicBold-23" transform="translate(241.859375 0)"/>
     <use xlink:href="#MalgunGothicBold-45" transform="translate(312.21875 0)"/>
     <use xlink:href="#MalgunGothicBold-56" transform="translate(360.953125 0)"/>
     <use xlink:href="#MalgunGothicBold-4b" transform="translate(399.375 0)"/>
     <use xlink:href="#MalgunGothicBold-51" transform="translate(426.8125 0)"/>
     <use xlink:href="#MalgunGothicBold-50" transform="translate(488.78125 0)"/>
     <use xlink:href="#MalgunGothicBold-3" transform="translate(549.625 0)"/>
     <use xlink:href="#MalgunGothicBold-32" transform="translate(584.78125 0)"/>
     <use xlink:href="#MalgunGothicBold-2c" transform="translate(639.21875 0)"/>
    </g>
   </g>
   <g id="text_4">
    <!-- 2/18건 -->
    <g style="fill: #e66767" transform="translate(375.32029 25.319063) scale(0.17 -0.17)">
     <defs>
      <path id="MalgunGothic-15" d="M 2519 3372 
Q 2519 3784 2275 4018 
Q 2031 4253 1628 4253 
Q 1341 4253 1053 4104 
Q 766 3956 534 3697 
L 534 4234 
Q 981 4675 1691 4675 
Q 2281 4675 2642 4334 
Q 3003 3994 3003 3416 
Q 3003 2919 2772 2545 
Q 2541 2172 1984 1775 
Q 1459 1406 1254 1215 
Q 1050 1025 967 854 
Q 884 684 884 450 
L 3116 450 
L 3116 0 
L 356 0 
L 356 225 
Q 356 603 461 870 
Q 566 1138 811 1392 
Q 1056 1647 1597 2022 
Q 2091 2363 2305 2670 
Q 2519 2978 2519 3372 
z
" transform="scale(0.015625)"/>
      <path id="MalgunGothic-14" d="M 2231 0 
L 1734 0 
L 1734 3972 
Q 1591 3828 1266 3661 
Q 941 3494 672 3428 
L 672 3959 
Q 1016 4056 1409 4275 
Q 1803 4494 2031 4700 
L 2231 4700 
L 2231 0 
z
" transform="scale(0.015625)"/>
      <path id="MalgunGothic-1b" d="M 303 1281 
Q 303 1669 539 2011 
Q 775 2353 1153 2494 
Q 856 2647 675 2915 
Q 494 3184 494 3500 
Q 494 3828 659 4098 
Q 825 4369 1122 4522 
Q 1419 4675 1778 4675 
Q 2334 4675 2700 4342 
Q 3066 4009 3066 3500 
Q 3066 3181 2881 2914 
Q 2697 2647 2413 2494 
Q 2788 2350 3022 2009 
Q 3256 1669 3256 1281 
Q 3256 672 2843 297 
Q 2431 -78 1778 -78 
Q 1131 -78 717 301 
Q 303 681 303 1281 
z
M 809 1328 
Q 809 878 1081 611 
Q 1353 344 1781 344 
Q 2206 344 2482 619 
Q 2759 894 2759 1328 
Q 2759 1731 2482 2011 
Q 2206 2291 1781 2291 
Q 1372 2291 1090 2020 
Q 809 1750 809 1328 
z
M 1003 3459 
Q 1003 3125 1234 2900 
Q 1466 2675 1781 2675 
Q 2097 2675 2330 2900 
Q 2563 3125 2563 3459 
Q 2563 3803 2341 4026 
Q 2119 4250 1781 4250 
Q 1450 4250 1226 4029 
Q 1003 3809 1003 3459 
z
" transform="scale(0.015625)"/>
     </defs>
     <use xlink:href="#MalgunGothic-15"/>
     <use xlink:href="#MalgunGothic-12" transform="translate(55.078125 0)"/>
     <use xlink:href="#MalgunGothic-14" transform="translate(94.671875 0)"/>
     <use xlink:href="#MalgunGothic-1b" transform="translate(149.75 0)"/>
     <use xlink:href="#MalgunGothic-2a2" transform="translate(204.828125 0)"/>
    </g>
   </g>
  </g>
  <g id="axes_3">
   <g id="patch_73">
    <path d="M 467.883929 57.744179 
L 477.245798 57.744179 
Q 479.867122 57.744179 479.867122 55.122856 
L 479.867122 45.760986 
Q 479.867122 43.139662 477.245798 43.139662 
L 467.883929 43.139662 
Q 465.262605 43.139662 465.262605 45.760986 
L 465.262605 55.122856 
Q 465.262605 57.744179 467.883929 57.744179 
z
" clip-path="url(#p7cf47c9c9f)" style="fill: #e66767"/>
   </g>
   <g id="patch_74">
    <path d="M 486.607668 57.744179 
L 495.969538 57.744179 
Q 498.590861 57.744179 498.590861 55.122856 
L 498.590861 45.760986 
Q 498.590861 43.139662 495.969538 43.139662 
L 486.607668 43.139662 
Q 483.986345 43.139662 483.986345 45.760986 
L 483.986345 55.122856 
Q 483.986345 57.744179 486.607668 57.744179 
z
" clip-path="url(#p7cf47c9c9f)" style="fill: #2c4a72"/>
   </g>
   <g id="patch_75">
    <path d="M 505.331408 57.744179 
L 514.693277 57.744179 
Q 517.314601 57.744179 517.314601 55.122856 
L 517.314601 45.760986 
Q 517.314601 43.139662 514.693277 43.139662 
L 505.331408 43.139662 
Q 502.710084 43.139662 502.710084 45.760986 
L 502.710084 55.122856 
Q 502.710084 57.744179 505.331408 57.744179 
z
" clip-path="url(#p7cf47c9c9f)" style="fill: #2c4a72"/>
   </g>
   <g id="patch_76">
    <path d="M 524.055147 57.744179 
L 533.417017 57.744179 
Q 536.03834 57.744179 536.03834 55.122856 
L 536.03834 45.760986 
Q 536.03834 43.139662 533.417017 43.139662 
L 524.055147 43.139662 
Q 521.433824 43.139662 521.433824 45.760986 
L 521.433824 55.122856 
Q 521.433824 57.744179 524.055147 57.744179 
z
" clip-path="url(#p7cf47c9c9f)" style="fill: #2c4a72"/>
   </g>
   <g id="patch_77">
    <path d="M 542.778887 57.744179 
L 552.140756 57.744179 
Q 554.76208 57.744179 554.76208 55.122856 
L 554.76208 45.760986 
Q 554.76208 43.139662 552.140756 43.139662 
L 542.778887 43.139662 
Q 540.157563 43.139662 540.157563 45.760986 
L 540.157563 55.122856 
Q 540.157563 57.744179 542.778887 57.744179 
z
" clip-path="url(#p7cf47c9c9f)" style="fill: #2c4a72"/>
   </g>
   <g id="patch_78">
    <path d="M 561.502626 57.744179 
L 570.864496 57.744179 
Q 573.485819 57.744179 573.485819 55.122856 
L 573.485819 45.760986 
Q 573.485819 43.139662 570.864496 43.139662 
L 561.502626 43.139662 
Q 558.881303 43.139662 558.881303 45.760986 
L 558.881303 55.122856 
Q 558.881303 57.744179 561.502626 57.744179 
z
" clip-path="url(#p7cf47c9c9f)" style="fill: #2c4a72"/>
   </g>
   <g id="patch_79">
    <path d="M 580.226366 57.744179 
L 589.588235 57.744179 
Q 592.209559 57.744179 592.209559 55.122856 
L 592.209559 45.760986 
Q 592.209559 43.139662 589.588235 43.139662 
L 580.226366 43.139662 
Q 577.605042 43.139662 577.605042 45.760986 
L 577.605042 55.122856 
Q 577.605042 57.744179 580.226366 57.744179 
z
" clip-path="url(#p7cf47c9c9f)" style="fill: #2c4a72"/>
   </g>
   <g id="patch_80">
    <path d="M 598.950105 57.744179 
L 608.311975 57.744179 
Q 610.933298 57.744179 610.933298 55.122856 
L 610.933298 45.760986 
Q 610.933298 43.139662 608.311975 43.139662 
L 598.950105 43.139662 
Q 596.328782 43.139662 596.328782 45.760986 
L 596.328782 55.122856 
Q 596.328782 57.744179 598.950105 57.744179 
z
" clip-path="url(#p7cf47c9c9f)" style="fill: #2c4a72"/>
   </g>
   <g id="patch_81">
    <path d="M 617.673845 57.744179 
L 627.035714 57.744179 
Q 629.657038 57.744179 629.657038 55.122856 
L 629.657038 45.760986 
Q 629.657038 43.139662 627.035714 43.139662 
L 617.673845 43.139662 
Q 615.052521 43.139662 615.052521 45.760986 
L 615.052521 55.122856 
Q 615.052521 57.744179 617.673845 57.744179 
z
" clip-path="url(#p7cf47c9c9f)" style="fill: #2c4a72"/>
   </g>
   <g id="patch_82">
    <path d="M 636.397584 57.744179 
L 645.759454 57.744179 
Q 648.380777 57.744179 648.380777 55.122856 
L 648.380777 45.760986 
Q 648.380777 43.139662 645.759454 43.139662 
L 636.397584 43.139662 
Q 633.776261 43.139662 633.776261 45.760986 
L 633.776261 55.122856 
Q 633.776261 57.744179 636.397584 57.744179 
z
" clip-path="url(#p7cf47c9c9f)" style="fill: #2c4a72"/>
   </g>
   <g id="patch_83">
    <path d="M 467.883929 76.467919 
L 477.245798 76.467919 
Q 479.867122 76.467919 479.867122 73.846595 
L 479.867122 64.484725 
Q 479.867122 61.863402 477.245798 61.863402 
L 467.883929 61.863402 
Q 465.262605 61.863402 465.262605 64.484725 
L 465.262605 73.846595 
Q 465.262605 76.467919 467.883929 76.467919 
z
" clip-path="url(#p7cf47c9c9f)" style="fill: #2c4a72"/>
   </g>
   <g id="patch_84">
    <path d="M 486.607668 76.467919 
L 495.969538 76.467919 
Q 498.590861 76.467919 498.590861 73.846595 
L 498.590861 64.484725 
Q 498.590861 61.863402 495.969538 61.863402 
L 486.607668 61.863402 
Q 483.986345 61.863402 483.986345 64.484725 
L 483.986345 73.846595 
Q 483.986345 76.467919 486.607668 76.467919 
z
" clip-path="url(#p7cf47c9c9f)" style="fill: #2c4a72"/>
   </g>
   <g id="patch_85">
    <path d="M 505.331408 76.467919 
L 514.693277 76.467919 
Q 517.314601 76.467919 517.314601 73.846595 
L 517.314601 64.484725 
Q 517.314601 61.863402 514.693277 61.863402 
L 505.331408 61.863402 
Q 502.710084 61.863402 502.710084 64.484725 
L 502.710084 73.846595 
Q 502.710084 76.467919 505.331408 76.467919 
z
" clip-path="url(#p7cf47c9c9f)" style="fill: #2c4a72"/>
   </g>
   <g id="patch_86">
    <path d="M 524.055147 76.467919 
L 533.417017 76.467919 
Q 536.03834 76.467919 536.03834 73.846595 
L 536.03834 64.484725 
Q 536.03834 61.863402 533.417017 61.863402 
L 524.055147 61.863402 
Q 521.433824 61.863402 521.433824 64.484725 
L 521.433824 73.846595 
Q 521.433824 76.467919 524.055147 76.467919 
z
" clip-path="url(#p7cf47c9c9f)" style="fill: #2c4a72"/>
   </g>
   <g id="patch_87">
    <path d="M 542.778887 76.467919 
L 552.140756 76.467919 
Q 554.76208 76.467919 554.76208 73.846595 
L 554.76208 64.484725 
Q 554.76208 61.863402 552.140756 61.863402 
L 542.778887 61.863402 
Q 540.157563 61.863402 540.157563 64.484725 
L 540.157563 73.846595 
Q 540.157563 76.467919 542.778887 76.467919 
z
" clip-path="url(#p7cf47c9c9f)" style="fill: #2c4a72"/>
   </g>
   <g id="patch_88">
    <path d="M 561.502626 76.467919 
L 570.864496 76.467919 
Q 573.485819 76.467919 573.485819 73.846595 
L 573.485819 64.484725 
Q 573.485819 61.863402 570.864496 61.863402 
L 561.502626 61.863402 
Q 558.881303 61.863402 558.881303 64.484725 
L 558.881303 73.846595 
Q 558.881303 76.467919 561.502626 76.467919 
z
" clip-path="url(#p7cf47c9c9f)" style="fill: #2c4a72"/>
   </g>
   <g id="text_5">
    <!-- Cort GB24JJ -->
    <g style="fill: #eef1f5" transform="translate(465.262605 25.319063) scale(0.17 -0.17)">
     <defs>
      <path id="MalgunGothicBold-29" d="M 4225 313 
Q 3547 -81 2588 -81 
Q 1519 -81 887 539 
Q 256 1159 256 2228 
Q 256 3303 943 3989 
Q 1631 4675 2763 4675 
Q 3500 4675 4044 4463 
L 4044 3597 
Q 3513 3919 2738 3919 
Q 2053 3919 1623 3467 
Q 1194 3016 1194 2275 
Q 1194 1519 1581 1098 
Q 1969 678 2644 678 
Q 3056 678 3331 813 
L 3331 1828 
L 2388 1828 
L 2388 2553 
L 4225 2553 
L 4225 313 
z
" transform="scale(0.015625)"/>
      <path id="MalgunGothicBold-24" d="M 547 0 
L 547 4600 
L 2113 4600 
Q 2822 4600 3222 4317 
Q 3622 4034 3622 3528 
Q 3622 3159 3387 2876 
Q 3153 2594 2756 2472 
L 2756 2463 
Q 3244 2400 3531 2100 
Q 3819 1800 3819 1356 
Q 3819 738 3375 369 
Q 2931 0 2188 0 
L 547 0 
z
M 1438 3916 
L 1438 2709 
L 1922 2709 
Q 2281 2709 2484 2879 
Q 2688 3050 2688 3359 
Q 2688 3916 1894 3916 
L 1438 3916 
z
M 1438 2022 
L 1438 684 
L 2050 684 
Q 2444 684 2662 865 
Q 2881 1047 2881 1369 
Q 2881 2022 2019 2022 
L 1438 2022 
z
" transform="scale(0.015625)"/>
      <path id="MalgunGothicBold-14" d="M 1322 734 
L 3272 734 
L 3272 0 
L 400 0 
L 400 347 
Q 400 719 526 1033 
Q 653 1347 889 1620 
Q 1125 1894 1881 2459 
Q 2175 2678 2303 2878 
Q 2431 3078 2431 3325 
Q 2431 3631 2251 3801 
Q 2072 3972 1694 3972 
Q 1103 3972 559 3503 
L 559 4288 
Q 1116 4675 1819 4675 
Q 2531 4675 2920 4328 
Q 3309 3981 3309 3369 
Q 3309 3053 3207 2809 
Q 3106 2566 2939 2367 
Q 2772 2169 2555 1998 
Q 2338 1828 2109 1659 
Q 1688 1347 1505 1125 
Q 1322 903 1322 734 
z
" transform="scale(0.015625)"/>
      <path id="MalgunGothicBold-16" d="M 2969 4600 
L 2969 1653 
L 3519 1653 
L 3519 1016 
L 2969 1016 
L 2969 0 
L 2163 0 
L 2163 1016 
L 159 1016 
L 159 1688 
Q 788 2406 1325 3189 
Q 1863 3972 2147 4600 
L 2969 4600 
z
M 900 1653 
L 2163 1653 
L 2163 3434 
Q 1972 3094 1622 2592 
Q 1272 2091 900 1653 
z
" transform="scale(0.015625)"/>
     </defs>
     <use xlink:href="#MalgunGothicBold-25"/>
     <use xlink:href="#MalgunGothicBold-51" transform="translate(63.875 0)"/>
     <use xlink:href="#MalgunGothicBold-54" transform="translate(125.84375 0)"/>
     <use xlink:href="#MalgunGothicBold-56" transform="translate(168.28125 0)"/>
     <use xlink:href="#MalgunGothicBold-3" transform="translate(206.703125 0)"/>
     <use xlink:href="#MalgunGothicBold-29" transform="translate(241.859375 0)"/>
     <use xlink:href="#MalgunGothicBold-24" transform="translate(314.078125 0)"/>
     <use xlink:href="#MalgunGothicBold-14" transform="translate(377.796875 0)"/>
     <use xlink:href="#MalgunGothicBold-16" transform="translate(435.75 0)"/>
     <use xlink:href="#MalgunGothicBold-2c" transform="translate(493.703125 0)"/>
     <use xlink:href="#MalgunGothicBold-2c" transform="translate(533.984375 0)"/>
    </g>
   </g>
   <g id="text_6">
    <!-- 1/16건 -->
    <g style="fill: #e66767" transform="translate(600.679219 25.319063) scale(0.17 -0.17)">
     <defs>
      <path id="MalgunGothic-19" d="M 2981 4069 
Q 2619 4250 2228 4250 
Q 1591 4250 1228 3689 
Q 866 3128 869 2213 
L 884 2213 
Q 1203 2872 1938 2872 
Q 2547 2872 2903 2478 
Q 3259 2084 3259 1450 
Q 3259 797 2857 359 
Q 2456 -78 1825 -78 
Q 1116 -78 736 478 
Q 356 1034 356 2019 
Q 356 3181 847 3928 
Q 1338 4675 2222 4675 
Q 2700 4675 2981 4544 
L 2981 4069 
z
M 906 1506 
Q 906 1022 1165 683 
Q 1425 344 1844 344 
Q 2247 344 2498 645 
Q 2750 947 2750 1388 
Q 2750 1888 2509 2167 
Q 2269 2447 1838 2447 
Q 1444 2447 1175 2173 
Q 906 1900 906 1506 
z
" transform="scale(0.015625)"/>
     </defs>
     <use xlink:href="#MalgunGothic-14"/>
     <use xlink:href="#MalgunGothic-12" transform="translate(55.078125 0)"/>
     <use xlink:href="#MalgunGothic-14" transform="translate(94.671875 0)"/>
     <use xlink:href="#MalgunGothic-19" transform="translate(149.75 0)"/>
     <use xlink:href="#MalgunGothic-2a2" transform="translate(204.828125 0)"/>
    </g>
   </g>
  </g>
  <g id="axes_4">
   <g id="patch_89">
    <path d="M 17.166071 280.156414 
L 26.527941 280.156414 
Q 29.149265 280.156414 29.149265 277.535091 
L 29.149265 268.173221 
Q 29.149265 265.551898 26.527941 265.551898 
L 17.166071 265.551898 
Q 14.544748 265.551898 14.544748 268.173221 
L 14.544748 277.535091 
Q 14.544748 280.156414 17.166071 280.156414 
z
" clip-path="url(#p9cf6417a0c)" style="fill: #f2b544"/>
   </g>
   <g id="patch_90">
    <path d="M 35.889811 280.156414 
L 45.251681 280.156414 
Q 47.873004 280.156414 47.873004 277.535091 
L 47.873004 268.173221 
Q 47.873004 265.551898 45.251681 265.551898 
L 35.889811 265.551898 
Q 33.268487 265.551898 33.268487 268.173221 
L 33.268487 277.535091 
Q 33.268487 280.156414 35.889811 280.156414 
z
" clip-path="url(#p9cf6417a0c)" style="fill: #2c4a72"/>
   </g>
   <g id="patch_91">
    <path d="M 54.61355 280.156414 
L 63.97542 280.156414 
Q 66.596744 280.156414 66.596744 277.535091 
L 66.596744 268.173221 
Q 66.596744 265.551898 63.97542 265.551898 
L 54.61355 265.551898 
Q 51.992227 265.551898 51.992227 268.173221 
L 51.992227 277.535091 
Q 51.992227 280.156414 54.61355 280.156414 
z
" clip-path="url(#p9cf6417a0c)" style="fill: #2c4a72"/>
   </g>
   <g id="patch_92">
    <path d="M 73.33729 280.156414 
L 82.69916 280.156414 
Q 85.320483 280.156414 85.320483 277.535091 
L 85.320483 268.173221 
Q 85.320483 265.551898 82.69916 265.551898 
L 73.33729 265.551898 
Q 70.715966 265.551898 70.715966 268.173221 
L 70.715966 277.535091 
Q 70.715966 280.156414 73.33729 280.156414 
z
" clip-path="url(#p9cf6417a0c)" style="fill: #2c4a72"/>
   </g>
   <g id="patch_93">
    <path d="M 92.061029 280.156414 
L 101.422899 280.156414 
Q 104.044223 280.156414 104.044223 277.535091 
L 104.044223 268.173221 
Q 104.044223 265.551898 101.422899 265.551898 
L 92.061029 265.551898 
Q 89.439706 265.551898 89.439706 268.173221 
L 89.439706 277.535091 
Q 89.439706 280.156414 92.061029 280.156414 
z
" clip-path="url(#p9cf6417a0c)" style="fill: #2c4a72"/>
   </g>
   <g id="patch_94">
    <path d="M 110.784769 280.156414 
L 120.146639 280.156414 
Q 122.767962 280.156414 122.767962 277.535091 
L 122.767962 268.173221 
Q 122.767962 265.551898 120.146639 265.551898 
L 110.784769 265.551898 
Q 108.163445 265.551898 108.163445 268.173221 
L 108.163445 277.535091 
Q 108.163445 280.156414 110.784769 280.156414 
z
" clip-path="url(#p9cf6417a0c)" style="fill: #2c4a72"/>
   </g>
   <g id="text_7">
    <!-- Yamaha BB234 -->
    <g style="fill: #eef1f5" transform="translate(14.544748 247.731298) scale(0.17 -0.17)">
     <defs>
      <path id="MalgunGothicBold-3b" d="M 3878 4600 
L 2372 1653 
L 2372 0 
L 1481 0 
L 1481 1634 
L 19 4600 
L 1038 4600 
L 1859 2775 
Q 1878 2731 1966 2428 
L 1978 2428 
Q 2016 2622 2081 2769 
L 2931 4600 
L 3878 4600 
z
" transform="scale(0.015625)"/>
      <path id="MalgunGothicBold-4f" d="M 5509 0 
L 4641 0 
L 4641 1875 
Q 4641 2684 4053 2684 
Q 3781 2684 3598 2439 
Q 3416 2194 3416 1850 
L 3416 0 
L 2547 0 
L 2547 1909 
Q 2547 2684 1963 2684 
Q 1684 2684 1506 2454 
Q 1328 2225 1328 1841 
L 1328 0 
L 456 0 
L 456 3284 
L 1328 3284 
L 1328 2766 
L 1338 2766 
Q 1706 3363 2391 3363 
Q 3084 3363 3334 2731 
Q 3709 3363 4431 3363 
Q 5509 3363 5509 2038 
L 5509 0 
z
" transform="scale(0.015625)"/>
      <path id="MalgunGothicBold-4a" d="M 3481 0 
L 2613 0 
L 2613 1872 
Q 2613 2684 2019 2684 
Q 1713 2684 1520 2454 
Q 1328 2225 1328 1872 
L 1328 0 
L 456 0 
L 456 4859 
L 1328 4859 
L 1328 2778 
L 1338 2778 
Q 1713 3363 2369 3363 
Q 3481 3363 3481 2019 
L 3481 0 
z
" transform="scale(0.015625)"/>
      <path id="MalgunGothicBold-15" d="M 456 947 
Q 922 600 1531 600 
Q 1931 600 2175 783 
Q 2419 966 2419 1306 
Q 2419 2022 1338 2022 
L 931 2022 
L 931 2703 
L 1309 2703 
Q 2278 2703 2278 3372 
Q 2278 3997 1534 3997 
Q 1069 3997 631 3691 
L 631 4425 
Q 1100 4675 1738 4675 
Q 2372 4675 2769 4375 
Q 3166 4075 3166 3544 
Q 3166 2647 2250 2406 
L 2250 2394 
Q 2728 2344 3018 2042 
Q 3309 1741 3309 1313 
Q 3309 659 2836 289 
Q 2363 -81 1581 -81 
Q 894 -81 456 156 
L 456 947 
z
" transform="scale(0.015625)"/>
     </defs>
     <use xlink:href="#MalgunGothicBold-3b"/>
     <use xlink:href="#MalgunGothicBold-43" transform="translate(50.828125 0)"/>
     <use xlink:href="#MalgunGothicBold-4f" transform="translate(105.125 0)"/>
     <use xlink:href="#MalgunGothicBold-43" transform="translate(197.453125 0)"/>
     <use xlink:href="#MalgunGothicBold-4a" transform="translate(251.75 0)"/>
     <use xlink:href="#MalgunGothicBold-43" transform="translate(312.4375 0)"/>
     <use xlink:href="#MalgunGothicBold-3" transform="translate(366.734375 0)"/>
     <use xlink:href="#MalgunGothicBold-24" transform="translate(401.890625 0)"/>
     <use xlink:href="#MalgunGothicBold-24" transform="translate(465.609375 0)"/>
     <use xlink:href="#MalgunGothicBold-14" transform="translate(529.328125 0)"/>
     <use xlink:href="#MalgunGothicBold-15" transform="translate(587.28125 0)"/>
     <use xlink:href="#MalgunGothicBold-16" transform="translate(645.234375 0)"/>
    </g>
   </g>
   <g id="text_8">
    <!-- 1/6건 -->
    <g style="fill: #f2b544" transform="translate(159.324643 247.731298) scale(0.17 -0.17)">
     <use xlink:href="#MalgunGothic-14"/>
     <use xlink:href="#MalgunGothic-12" transform="translate(55.078125 0)"/>
     <use xlink:href="#MalgunGothic-19" transform="translate(94.671875 0)"/>
     <use xlink:href="#MalgunGothic-2a2" transform="translate(149.75 0)"/>
    </g>
   </g>
  </g>
  <g id="axes_5">
   <g id="patch_95">
    <path d="M 242.525 280.156414 
L 251.88687 280.156414 
Q 254.508193 280.156414 254.508193 277.535091 
L 254.508193 268.173221 
Q 254.508193 265.551898 251.88687 265.551898 
L 242.525 265.551898 
Q 239.903676 265.551898 239.903676 268.173221 
L 239.903676 277.535091 
Q 239.903676 280.156414 242.525 280.156414 
z
" clip-path="url(#pbb57687225)" style="fill: #3987e5"/>
   </g>
   <g id="patch_96">
    <path d="M 261.248739 280.156414 
L 270.610609 280.156414 
Q 273.231933 280.156414 273.231933 277.535091 
L 273.231933 268.173221 
Q 273.231933 265.551898 270.610609 265.551898 
L 261.248739 265.551898 
Q 258.627416 265.551898 258.627416 268.173221 
L 258.627416 277.535091 
Q 258.627416 280.156414 261.248739 280.156414 
z
" clip-path="url(#pbb57687225)" style="fill: #3987e5"/>
   </g>
   <g id="patch_97">
    <path d="M 279.972479 280.156414 
L 289.334349 280.156414 
Q 291.955672 280.156414 291.955672 277.535091 
L 291.955672 268.173221 
Q 291.955672 265.551898 289.334349 265.551898 
L 279.972479 265.551898 
Q 277.351155 265.551898 277.351155 268.173221 
L 277.351155 277.535091 
Q 277.351155 280.156414 279.972479 280.156414 
z
" clip-path="url(#pbb57687225)" style="fill: #3987e5"/>
   </g>
   <g id="patch_98">
    <path d="M 298.696218 280.156414 
L 308.058088 280.156414 
Q 310.679412 280.156414 310.679412 277.535091 
L 310.679412 268.173221 
Q 310.679412 265.551898 308.058088 265.551898 
L 298.696218 265.551898 
Q 296.074895 265.551898 296.074895 268.173221 
L 296.074895 277.535091 
Q 296.074895 280.156414 298.696218 280.156414 
z
" clip-path="url(#pbb57687225)" style="fill: #3987e5"/>
   </g>
   <g id="patch_99">
    <path d="M 317.419958 280.156414 
L 326.781828 280.156414 
Q 329.403151 280.156414 329.403151 277.535091 
L 329.403151 268.173221 
Q 329.403151 265.551898 326.781828 265.551898 
L 317.419958 265.551898 
Q 314.798634 265.551898 314.798634 268.173221 
L 314.798634 277.535091 
Q 314.798634 280.156414 317.419958 280.156414 
z
" clip-path="url(#pbb57687225)" style="fill: #3987e5"/>
   </g>
   <g id="patch_100">
    <path d="M 336.143697 280.156414 
L 345.505567 280.156414 
Q 348.126891 280.156414 348.126891 277.535091 
L 348.126891 268.173221 
Q 348.126891 265.551898 345.505567 265.551898 
L 336.143697 265.551898 
Q 333.522374 265.551898 333.522374 268.173221 
L 333.522374 277.535091 
Q 333.522374 280.156414 336.143697 280.156414 
z
" clip-path="url(#pbb57687225)" style="fill: #3987e5"/>
   </g>
   <g id="patch_101">
    <path d="M 354.867437 280.156414 
L 364.229307 280.156414 
Q 366.85063 280.156414 366.85063 277.535091 
L 366.85063 268.173221 
Q 366.85063 265.551898 364.229307 265.551898 
L 354.867437 265.551898 
Q 352.246113 265.551898 352.246113 268.173221 
L 352.246113 277.535091 
Q 352.246113 280.156414 354.867437 280.156414 
z
" clip-path="url(#pbb57687225)" style="fill: #3987e5"/>
   </g>
   <g id="patch_102">
    <path d="M 373.591176 280.156414 
L 382.953046 280.156414 
Q 385.57437 280.156414 385.57437 277.535091 
L 385.57437 268.173221 
Q 385.57437 265.551898 382.953046 265.551898 
L 373.591176 265.551898 
Q 370.969853 265.551898 370.969853 268.173221 
L 370.969853 277.535091 
Q 370.969853 280.156414 373.591176 280.156414 
z
" clip-path="url(#pbb57687225)" style="fill: #3987e5"/>
   </g>
   <g id="patch_103">
    <path d="M 392.314916 280.156414 
L 401.676786 280.156414 
Q 404.298109 280.156414 404.298109 277.535091 
L 404.298109 268.173221 
Q 404.298109 265.551898 401.676786 265.551898 
L 392.314916 265.551898 
Q 389.693592 265.551898 389.693592 268.173221 
L 389.693592 277.535091 
Q 389.693592 280.156414 392.314916 280.156414 
z
" clip-path="url(#pbb57687225)" style="fill: #3987e5"/>
   </g>
   <g id="patch_104">
    <path d="M 411.038655 280.156414 
L 420.400525 280.156414 
Q 423.021849 280.156414 423.021849 277.535091 
L 423.021849 268.173221 
Q 423.021849 265.551898 420.400525 265.551898 
L 411.038655 265.551898 
Q 408.417332 265.551898 408.417332 268.173221 
L 408.417332 277.535091 
Q 408.417332 280.156414 411.038655 280.156414 
z
" clip-path="url(#pbb57687225)" style="fill: #3987e5"/>
   </g>
   <g id="patch_105">
    <path d="M 242.525 298.880154 
L 251.88687 298.880154 
Q 254.508193 298.880154 254.508193 296.25883 
L 254.508193 286.896961 
Q 254.508193 284.275637 251.88687 284.275637 
L 242.525 284.275637 
Q 239.903676 284.275637 239.903676 286.896961 
L 239.903676 296.25883 
Q 239.903676 298.880154 242.525 298.880154 
z
" clip-path="url(#pbb57687225)" style="fill: #3987e5"/>
   </g>
   <g id="patch_106">
    <path d="M 261.248739 298.880154 
L 270.610609 298.880154 
Q 273.231933 298.880154 273.231933 296.25883 
L 273.231933 286.896961 
Q 273.231933 284.275637 270.610609 284.275637 
L 261.248739 284.275637 
Q 258.627416 284.275637 258.627416 286.896961 
L 258.627416 296.25883 
Q 258.627416 298.880154 261.248739 298.880154 
z
" clip-path="url(#pbb57687225)" style="fill: #3987e5"/>
   </g>
   <g id="patch_107">
    <path d="M 279.972479 298.880154 
L 289.334349 298.880154 
Q 291.955672 298.880154 291.955672 296.25883 
L 291.955672 286.896961 
Q 291.955672 284.275637 289.334349 284.275637 
L 279.972479 284.275637 
Q 277.351155 284.275637 277.351155 286.896961 
L 277.351155 296.25883 
Q 277.351155 298.880154 279.972479 298.880154 
z
" clip-path="url(#pbb57687225)" style="fill: #3987e5"/>
   </g>
   <g id="patch_108">
    <path d="M 298.696218 298.880154 
L 308.058088 298.880154 
Q 310.679412 298.880154 310.679412 296.25883 
L 310.679412 286.896961 
Q 310.679412 284.275637 308.058088 284.275637 
L 298.696218 284.275637 
Q 296.074895 284.275637 296.074895 286.896961 
L 296.074895 296.25883 
Q 296.074895 298.880154 298.696218 298.880154 
z
" clip-path="url(#pbb57687225)" style="fill: #3987e5"/>
   </g>
   <g id="patch_109">
    <path d="M 317.419958 298.880154 
L 326.781828 298.880154 
Q 329.403151 298.880154 329.403151 296.25883 
L 329.403151 286.896961 
Q 329.403151 284.275637 326.781828 284.275637 
L 317.419958 284.275637 
Q 314.798634 284.275637 314.798634 286.896961 
L 314.798634 296.25883 
Q 314.798634 298.880154 317.419958 298.880154 
z
" clip-path="url(#pbb57687225)" style="fill: #3987e5"/>
   </g>
   <g id="patch_110">
    <path d="M 336.143697 298.880154 
L 345.505567 298.880154 
Q 348.126891 298.880154 348.126891 296.25883 
L 348.126891 286.896961 
Q 348.126891 284.275637 345.505567 284.275637 
L 336.143697 284.275637 
Q 333.522374 284.275637 333.522374 286.896961 
L 333.522374 296.25883 
Q 333.522374 298.880154 336.143697 298.880154 
z
" clip-path="url(#pbb57687225)" style="fill: #3987e5"/>
   </g>
   <g id="patch_111">
    <path d="M 354.867437 298.880154 
L 364.229307 298.880154 
Q 366.85063 298.880154 366.85063 296.25883 
L 366.85063 286.896961 
Q 366.85063 284.275637 364.229307 284.275637 
L 354.867437 284.275637 
Q 352.246113 284.275637 352.246113 286.896961 
L 352.246113 296.25883 
Q 352.246113 298.880154 354.867437 298.880154 
z
" clip-path="url(#pbb57687225)" style="fill: #3987e5"/>
   </g>
   <g id="patch_112">
    <path d="M 373.591176 298.880154 
L 382.953046 298.880154 
Q 385.57437 298.880154 385.57437 296.25883 
L 385.57437 286.896961 
Q 385.57437 284.275637 382.953046 284.275637 
L 373.591176 284.275637 
Q 370.969853 284.275637 370.969853 286.896961 
L 370.969853 296.25883 
Q 370.969853 298.880154 373.591176 298.880154 
z
" clip-path="url(#pbb57687225)" style="fill: #3987e5"/>
   </g>
   <g id="patch_113">
    <path d="M 392.314916 298.880154 
L 401.676786 298.880154 
Q 404.298109 298.880154 404.298109 296.25883 
L 404.298109 286.896961 
Q 404.298109 284.275637 401.676786 284.275637 
L 392.314916 284.275637 
Q 389.693592 284.275637 389.693592 286.896961 
L 389.693592 296.25883 
Q 389.693592 298.880154 392.314916 298.880154 
z
" clip-path="url(#pbb57687225)" style="fill: #3987e5"/>
   </g>
   <g id="patch_114">
    <path d="M 411.038655 298.880154 
L 420.400525 298.880154 
Q 423.021849 298.880154 423.021849 296.25883 
L 423.021849 286.896961 
Q 423.021849 284.275637 420.400525 284.275637 
L 411.038655 284.275637 
Q 408.417332 284.275637 408.417332 286.896961 
L 408.417332 296.25883 
Q 408.417332 298.880154 411.038655 298.880154 
z
" clip-path="url(#pbb57687225)" style="fill: #3987e5"/>
   </g>
   <g id="patch_115">
    <path d="M 242.525 317.603893 
L 251.88687 317.603893 
Q 254.508193 317.603893 254.508193 314.98257 
L 254.508193 305.6207 
Q 254.508193 302.999377 251.88687 302.999377 
L 242.525 302.999377 
Q 239.903676 302.999377 239.903676 305.6207 
L 239.903676 314.98257 
Q 239.903676 317.603893 242.525 317.603893 
z
" clip-path="url(#pbb57687225)" style="fill: #3987e5"/>
   </g>
   <g id="patch_116">
    <path d="M 261.248739 317.603893 
L 270.610609 317.603893 
Q 273.231933 317.603893 273.231933 314.98257 
L 273.231933 305.6207 
Q 273.231933 302.999377 270.610609 302.999377 
L 261.248739 302.999377 
Q 258.627416 302.999377 258.627416 305.6207 
L 258.627416 314.98257 
Q 258.627416 317.603893 261.248739 317.603893 
z
" clip-path="url(#pbb57687225)" style="fill: #3987e5"/>
   </g>
   <g id="patch_117">
    <path d="M 279.972479 317.603893 
L 289.334349 317.603893 
Q 291.955672 317.603893 291.955672 314.98257 
L 291.955672 305.6207 
Q 291.955672 302.999377 289.334349 302.999377 
L 279.972479 302.999377 
Q 277.351155 302.999377 277.351155 305.6207 
L 277.351155 314.98257 
Q 277.351155 317.603893 279.972479 317.603893 
z
" clip-path="url(#pbb57687225)" style="fill: #3987e5"/>
   </g>
   <g id="patch_118">
    <path d="M 298.696218 317.603893 
L 308.058088 317.603893 
Q 310.679412 317.603893 310.679412 314.98257 
L 310.679412 305.6207 
Q 310.679412 302.999377 308.058088 302.999377 
L 298.696218 302.999377 
Q 296.074895 302.999377 296.074895 305.6207 
L 296.074895 314.98257 
Q 296.074895 317.603893 298.696218 317.603893 
z
" clip-path="url(#pbb57687225)" style="fill: #3987e5"/>
   </g>
   <g id="patch_119">
    <path d="M 317.419958 317.603893 
L 326.781828 317.603893 
Q 329.403151 317.603893 329.403151 314.98257 
L 329.403151 305.6207 
Q 329.403151 302.999377 326.781828 302.999377 
L 317.419958 302.999377 
Q 314.798634 302.999377 314.798634 305.6207 
L 314.798634 314.98257 
Q 314.798634 317.603893 317.419958 317.603893 
z
" clip-path="url(#pbb57687225)" style="fill: #3987e5"/>
   </g>
   <g id="patch_120">
    <path d="M 336.143697 317.603893 
L 345.505567 317.603893 
Q 348.126891 317.603893 348.126891 314.98257 
L 348.126891 305.6207 
Q 348.126891 302.999377 345.505567 302.999377 
L 336.143697 302.999377 
Q 333.522374 302.999377 333.522374 305.6207 
L 333.522374 314.98257 
Q 333.522374 317.603893 336.143697 317.603893 
z
" clip-path="url(#pbb57687225)" style="fill: #3987e5"/>
   </g>
   <g id="patch_121">
    <path d="M 354.867437 317.603893 
L 364.229307 317.603893 
Q 366.85063 317.603893 366.85063 314.98257 
L 366.85063 305.6207 
Q 366.85063 302.999377 364.229307 302.999377 
L 354.867437 302.999377 
Q 352.246113 302.999377 352.246113 305.6207 
L 352.246113 314.98257 
Q 352.246113 317.603893 354.867437 317.603893 
z
" clip-path="url(#pbb57687225)" style="fill: #3987e5"/>
   </g>
   <g id="patch_122">
    <path d="M 373.591176 317.603893 
L 382.953046 317.603893 
Q 385.57437 317.603893 385.57437 314.98257 
L 385.57437 305.6207 
Q 385.57437 302.999377 382.953046 302.999377 
L 373.591176 302.999377 
Q 370.969853 302.999377 370.969853 305.6207 
L 370.969853 314.98257 
Q 370.969853 317.603893 373.591176 317.603893 
z
" clip-path="url(#pbb57687225)" style="fill: #3987e5"/>
   </g>
   <g id="patch_123">
    <path d="M 392.314916 317.603893 
L 401.676786 317.603893 
Q 404.298109 317.603893 404.298109 314.98257 
L 404.298109 305.6207 
Q 404.298109 302.999377 401.676786 302.999377 
L 392.314916 302.999377 
Q 389.693592 302.999377 389.693592 305.6207 
L 389.693592 314.98257 
Q 389.693592 317.603893 392.314916 317.603893 
z
" clip-path="url(#pbb57687225)" style="fill: #3987e5"/>
   </g>
   <g id="patch_124">
    <path d="M 411.038655 317.603893 
L 420.400525 317.603893 
Q 423.021849 317.603893 423.021849 314.98257 
L 423.021849 305.6207 
Q 423.021849 302.999377 420.400525 302.999377 
L 411.038655 302.999377 
Q 408.417332 302.999377 408.417332 305.6207 
L 408.417332 314.98257 
Q 408.417332 317.603893 411.038655 317.603893 
z
" clip-path="url(#pbb57687225)" style="fill: #3987e5"/>
   </g>
   <g id="patch_125">
    <path d="M 242.525 336.327633 
L 251.88687 336.327633 
Q 254.508193 336.327633 254.508193 333.706309 
L 254.508193 324.34444 
Q 254.508193 321.723116 251.88687 321.723116 
L 242.525 321.723116 
Q 239.903676 321.723116 239.903676 324.34444 
L 239.903676 333.706309 
Q 239.903676 336.327633 242.525 336.327633 
z
" clip-path="url(#pbb57687225)" style="fill: #3987e5"/>
   </g>
   <g id="text_9">
    <!-- Hex B100 -->
    <g style="fill: #eef1f5" transform="translate(239.903676 247.731298) scale(0.17 -0.17)">
     <defs>
      <path id="MalgunGothicBold-2a" d="M 4372 0 
L 3481 0 
L 3481 1938 
L 1438 1938 
L 1438 0 
L 547 0 
L 547 4600 
L 1438 4600 
L 1438 2709 
L 3481 2709 
L 3481 4600 
L 4372 4600 
L 4372 0 
z
" transform="scale(0.015625)"/>
      <path id="MalgunGothicBold-47" d="M 3316 1397 
L 1122 1397 
Q 1175 559 2072 559 
Q 2619 559 3047 847 
L 3047 184 
Q 2591 -81 1875 -81 
Q 1109 -81 682 362 
Q 256 806 256 1603 
Q 256 2384 714 2873 
Q 1172 3363 1859 3363 
Q 2547 3363 2931 2941 
Q 3316 2519 3316 1781 
L 3316 1397 
z
M 2494 1969 
Q 2494 2750 1850 2750 
Q 1581 2750 1376 2537 
Q 1172 2325 1122 1969 
L 2494 1969 
z
" transform="scale(0.015625)"/>
      <path id="MalgunGothicBold-5a" d="M 3403 3284 
L 2313 1672 
L 3394 0 
L 2384 0 
L 1863 938 
Q 1769 1103 1722 1222 
L 1709 1222 
Q 1684 1150 1575 944 
L 1041 0 
L 41 0 
L 1153 1628 
L 100 3284 
L 1113 3284 
L 1628 2303 
Q 1725 2119 1763 2009 
L 1775 2009 
Q 1841 2175 1913 2300 
L 2450 3284 
L 3403 3284 
z
" transform="scale(0.015625)"/>
      <path id="MalgunGothicBold-13" d="M 2534 4675 
L 2534 0 
L 1663 0 
L 1663 3616 
Q 1516 3481 1247 3365 
Q 978 3250 688 3216 
L 688 3988 
Q 1375 4194 1984 4675 
L 2534 4675 
z
" transform="scale(0.015625)"/>
      <path id="MalgunGothicBold-12" d="M 241 2222 
Q 241 3422 670 4048 
Q 1100 4675 1919 4675 
Q 3475 4675 3475 2328 
Q 3475 1172 3051 545 
Q 2628 -81 1825 -81 
Q 241 -81 241 2222 
z
M 1125 2244 
Q 1125 600 1863 600 
Q 2584 600 2584 2288 
Q 2584 3997 1878 3997 
Q 1125 3997 1125 2244 
z
" transform="scale(0.015625)"/>
     </defs>
     <use xlink:href="#MalgunGothicBold-2a"/>
     <use xlink:href="#MalgunGothicBold-47" transform="translate(76.953125 0)"/>
     <use xlink:href="#MalgunGothicBold-5a" transform="translate(131.9375 0)"/>
     <use xlink:href="#MalgunGothicBold-3" transform="translate(185.796875 0)"/>
     <use xlink:href="#MalgunGothicBold-24" transform="translate(220.953125 0)"/>
     <use xlink:href="#MalgunGothicBold-13" transform="translate(284.671875 0)"/>
     <use xlink:href="#MalgunGothicBold-12" transform="translate(342.625 0)"/>
     <use xlink:href="#MalgunGothicBold-12" transform="translate(400.578125 0)"/>
    </g>
   </g>
   <g id="text_10">
    <!-- 0/31건 -->
    <g style="fill: #3987e5" transform="translate(375.32029 247.731298) scale(0.17 -0.17)">
     <defs>
      <path id="MalgunGothic-13" d="M 278 2206 
Q 278 3425 675 4050 
Q 1072 4675 1819 4675 
Q 3253 4675 3253 2319 
Q 3253 1156 2854 539 
Q 2456 -78 1716 -78 
Q 1016 -78 647 520 
Q 278 1119 278 2206 
z
M 784 2231 
Q 784 344 1769 344 
Q 2747 344 2747 2259 
Q 2747 4250 1794 4250 
Q 784 4250 784 2231 
z
" transform="scale(0.015625)"/>
     </defs>
     <use xlink:href="#MalgunGothic-13"/>
     <use xlink:href="#MalgunGothic-12" transform="translate(55.078125 0)"/>
     <use xlink:href="#MalgunGothic-16" transform="translate(94.671875 0)"/>
     <use xlink:href="#MalgunGothic-14" transform="translate(149.75 0)"/>
     <use xlink:href="#MalgunGothic-2a2" transform="translate(204.828125 0)"/>
    </g>
   </g>
  </g>
  <g id="axes_6">
   <g id="patch_126">
    <path d="M 467.883929 280.156414 
L 477.245798 280.156414 
Q 479.867122 280.156414 479.867122 277.535091 
L 479.867122 268.173221 
Q 479.867122 265.551898 477.245798 265.551898 
L 467.883929 265.551898 
Q 465.262605 265.551898 465.262605 268.173221 
L 465.262605 277.535091 
Q 465.262605 280.156414 467.883929 280.156414 
z
" clip-path="url(#p61ca834f4e)" style="fill: #3987e5"/>
   </g>
   <g id="patch_127">
    <path d="M 486.607668 280.156414 
L 495.969538 280.156414 
Q 498.590861 280.156414 498.590861 277.535091 
L 498.590861 268.173221 
Q 498.590861 265.551898 495.969538 265.551898 
L 486.607668 265.551898 
Q 483.986345 265.551898 483.986345 268.173221 
L 483.986345 277.535091 
Q 483.986345 280.156414 486.607668 280.156414 
z
" clip-path="url(#p61ca834f4e)" style="fill: #3987e5"/>
   </g>
   <g id="patch_128">
    <path d="M 505.331408 280.156414 
L 514.693277 280.156414 
Q 517.314601 280.156414 517.314601 277.535091 
L 517.314601 268.173221 
Q 517.314601 265.551898 514.693277 265.551898 
L 505.331408 265.551898 
Q 502.710084 265.551898 502.710084 268.173221 
L 502.710084 277.535091 
Q 502.710084 280.156414 505.331408 280.156414 
z
" clip-path="url(#p61ca834f4e)" style="fill: #3987e5"/>
   </g>
   <g id="patch_129">
    <path d="M 524.055147 280.156414 
L 533.417017 280.156414 
Q 536.03834 280.156414 536.03834 277.535091 
L 536.03834 268.173221 
Q 536.03834 265.551898 533.417017 265.551898 
L 524.055147 265.551898 
Q 521.433824 265.551898 521.433824 268.173221 
L 521.433824 277.535091 
Q 521.433824 280.156414 524.055147 280.156414 
z
" clip-path="url(#p61ca834f4e)" style="fill: #3987e5"/>
   </g>
   <g id="patch_130">
    <path d="M 542.778887 280.156414 
L 552.140756 280.156414 
Q 554.76208 280.156414 554.76208 277.535091 
L 554.76208 268.173221 
Q 554.76208 265.551898 552.140756 265.551898 
L 542.778887 265.551898 
Q 540.157563 265.551898 540.157563 268.173221 
L 540.157563 277.535091 
Q 540.157563 280.156414 542.778887 280.156414 
z
" clip-path="url(#p61ca834f4e)" style="fill: #3987e5"/>
   </g>
   <g id="patch_131">
    <path d="M 561.502626 280.156414 
L 570.864496 280.156414 
Q 573.485819 280.156414 573.485819 277.535091 
L 573.485819 268.173221 
Q 573.485819 265.551898 570.864496 265.551898 
L 561.502626 265.551898 
Q 558.881303 265.551898 558.881303 268.173221 
L 558.881303 277.535091 
Q 558.881303 280.156414 561.502626 280.156414 
z
" clip-path="url(#p61ca834f4e)" style="fill: #3987e5"/>
   </g>
   <g id="patch_132">
    <path d="M 580.226366 280.156414 
L 589.588235 280.156414 
Q 592.209559 280.156414 592.209559 277.535091 
L 592.209559 268.173221 
Q 592.209559 265.551898 589.588235 265.551898 
L 580.226366 265.551898 
Q 577.605042 265.551898 577.605042 268.173221 
L 577.605042 277.535091 
Q 577.605042 280.156414 580.226366 280.156414 
z
" clip-path="url(#p61ca834f4e)" style="fill: #3987e5"/>
   </g>
   <g id="patch_133">
    <path d="M 598.950105 280.156414 
L 608.311975 280.156414 
Q 610.933298 280.156414 610.933298 277.535091 
L 610.933298 268.173221 
Q 610.933298 265.551898 608.311975 265.551898 
L 598.950105 265.551898 
Q 596.328782 265.551898 596.328782 268.173221 
L 596.328782 277.535091 
Q 596.328782 280.156414 598.950105 280.156414 
z
" clip-path="url(#p61ca834f4e)" style="fill: #3987e5"/>
   </g>
   <g id="patch_134">
    <path d="M 617.673845 280.156414 
L 627.035714 280.156414 
Q 629.657038 280.156414 629.657038 277.535091 
L 629.657038 268.173221 
Q 629.657038 265.551898 627.035714 265.551898 
L 617.673845 265.551898 
Q 615.052521 265.551898 615.052521 268.173221 
L 615.052521 277.535091 
Q 615.052521 280.156414 617.673845 280.156414 
z
" clip-path="url(#p61ca834f4e)" style="fill: #3987e5"/>
   </g>
   <g id="patch_135">
    <path d="M 636.397584 280.156414 
L 645.759454 280.156414 
Q 648.380777 280.156414 648.380777 277.535091 
L 648.380777 268.173221 
Q 648.380777 265.551898 645.759454 265.551898 
L 636.397584 265.551898 
Q 633.776261 265.551898 633.776261 268.173221 
L 633.776261 277.535091 
Q 633.776261 280.156414 636.397584 280.156414 
z
" clip-path="url(#p61ca834f4e)" style="fill: #3987e5"/>
   </g>
   <g id="patch_136">
    <path d="M 467.883929 298.880154 
L 477.245798 298.880154 
Q 479.867122 298.880154 479.867122 296.25883 
L 479.867122 286.896961 
Q 479.867122 284.275637 477.245798 284.275637 
L 467.883929 284.275637 
Q 465.262605 284.275637 465.262605 286.896961 
L 465.262605 296.25883 
Q 465.262605 298.880154 467.883929 298.880154 
z
" clip-path="url(#p61ca834f4e)" style="fill: #3987e5"/>
   </g>
   <g id="patch_137">
    <path d="M 486.607668 298.880154 
L 495.969538 298.880154 
Q 498.590861 298.880154 498.590861 296.25883 
L 498.590861 286.896961 
Q 498.590861 284.275637 495.969538 284.275637 
L 486.607668 284.275637 
Q 483.986345 284.275637 483.986345 286.896961 
L 483.986345 296.25883 
Q 483.986345 298.880154 486.607668 298.880154 
z
" clip-path="url(#p61ca834f4e)" style="fill: #3987e5"/>
   </g>
   <g id="patch_138">
    <path d="M 505.331408 298.880154 
L 514.693277 298.880154 
Q 517.314601 298.880154 517.314601 296.25883 
L 517.314601 286.896961 
Q 517.314601 284.275637 514.693277 284.275637 
L 505.331408 284.275637 
Q 502.710084 284.275637 502.710084 286.896961 
L 502.710084 296.25883 
Q 502.710084 298.880154 505.331408 298.880154 
z
" clip-path="url(#p61ca834f4e)" style="fill: #3987e5"/>
   </g>
   <g id="patch_139">
    <path d="M 524.055147 298.880154 
L 533.417017 298.880154 
Q 536.03834 298.880154 536.03834 296.25883 
L 536.03834 286.896961 
Q 536.03834 284.275637 533.417017 284.275637 
L 524.055147 284.275637 
Q 521.433824 284.275637 521.433824 286.896961 
L 521.433824 296.25883 
Q 521.433824 298.880154 524.055147 298.880154 
z
" clip-path="url(#p61ca834f4e)" style="fill: #3987e5"/>
   </g>
   <g id="patch_140">
    <path d="M 542.778887 298.880154 
L 552.140756 298.880154 
Q 554.76208 298.880154 554.76208 296.25883 
L 554.76208 286.896961 
Q 554.76208 284.275637 552.140756 284.275637 
L 542.778887 284.275637 
Q 540.157563 284.275637 540.157563 286.896961 
L 540.157563 296.25883 
Q 540.157563 298.880154 542.778887 298.880154 
z
" clip-path="url(#p61ca834f4e)" style="fill: #3987e5"/>
   </g>
   <g id="patch_141">
    <path d="M 561.502626 298.880154 
L 570.864496 298.880154 
Q 573.485819 298.880154 573.485819 296.25883 
L 573.485819 286.896961 
Q 573.485819 284.275637 570.864496 284.275637 
L 561.502626 284.275637 
Q 558.881303 284.275637 558.881303 286.896961 
L 558.881303 296.25883 
Q 558.881303 298.880154 561.502626 298.880154 
z
" clip-path="url(#p61ca834f4e)" style="fill: #3987e5"/>
   </g>
   <g id="patch_142">
    <path d="M 580.226366 298.880154 
L 589.588235 298.880154 
Q 592.209559 298.880154 592.209559 296.25883 
L 592.209559 286.896961 
Q 592.209559 284.275637 589.588235 284.275637 
L 580.226366 284.275637 
Q 577.605042 284.275637 577.605042 286.896961 
L 577.605042 296.25883 
Q 577.605042 298.880154 580.226366 298.880154 
z
" clip-path="url(#p61ca834f4e)" style="fill: #3987e5"/>
   </g>
   <g id="patch_143">
    <path d="M 598.950105 298.880154 
L 608.311975 298.880154 
Q 610.933298 298.880154 610.933298 296.25883 
L 610.933298 286.896961 
Q 610.933298 284.275637 608.311975 284.275637 
L 598.950105 284.275637 
Q 596.328782 284.275637 596.328782 286.896961 
L 596.328782 296.25883 
Q 596.328782 298.880154 598.950105 298.880154 
z
" clip-path="url(#p61ca834f4e)" style="fill: #3987e5"/>
   </g>
   <g id="patch_144">
    <path d="M 617.673845 298.880154 
L 627.035714 298.880154 
Q 629.657038 298.880154 629.657038 296.25883 
L 629.657038 286.896961 
Q 629.657038 284.275637 627.035714 284.275637 
L 617.673845 284.275637 
Q 615.052521 284.275637 615.052521 286.896961 
L 615.052521 296.25883 
Q 615.052521 298.880154 617.673845 298.880154 
z
" clip-path="url(#p61ca834f4e)" style="fill: #3987e5"/>
   </g>
   <g id="patch_145">
    <path d="M 636.397584 298.880154 
L 645.759454 298.880154 
Q 648.380777 298.880154 648.380777 296.25883 
L 648.380777 286.896961 
Q 648.380777 284.275637 645.759454 284.275637 
L 636.397584 284.275637 
Q 633.776261 284.275637 633.776261 286.896961 
L 633.776261 296.25883 
Q 633.776261 298.880154 636.397584 298.880154 
z
" clip-path="url(#p61ca834f4e)" style="fill: #3987e5"/>
   </g>
   <g id="patch_146">
    <path d="M 467.883929 317.603893 
L 477.245798 317.603893 
Q 479.867122 317.603893 479.867122 314.98257 
L 479.867122 305.6207 
Q 479.867122 302.999377 477.245798 302.999377 
L 467.883929 302.999377 
Q 465.262605 302.999377 465.262605 305.6207 
L 465.262605 314.98257 
Q 465.262605 317.603893 467.883929 317.603893 
z
" clip-path="url(#p61ca834f4e)" style="fill: #3987e5"/>
   </g>
   <g id="patch_147">
    <path d="M 486.607668 317.603893 
L 495.969538 317.603893 
Q 498.590861 317.603893 498.590861 314.98257 
L 498.590861 305.6207 
Q 498.590861 302.999377 495.969538 302.999377 
L 486.607668 302.999377 
Q 483.986345 302.999377 483.986345 305.6207 
L 483.986345 314.98257 
Q 483.986345 317.603893 486.607668 317.603893 
z
" clip-path="url(#p61ca834f4e)" style="fill: #3987e5"/>
   </g>
   <g id="patch_148">
    <path d="M 505.331408 317.603893 
L 514.693277 317.603893 
Q 517.314601 317.603893 517.314601 314.98257 
L 517.314601 305.6207 
Q 517.314601 302.999377 514.693277 302.999377 
L 505.331408 302.999377 
Q 502.710084 302.999377 502.710084 305.6207 
L 502.710084 314.98257 
Q 502.710084 317.603893 505.331408 317.603893 
z
" clip-path="url(#p61ca834f4e)" style="fill: #3987e5"/>
   </g>
   <g id="text_11">
    <!-- Cort Action Bass Plus -->
    <g style="fill: #eef1f5" transform="translate(465.262605 247.731298) scale(0.17 -0.17)">
     <defs>
      <path id="MalgunGothicBold-55" d="M 347 844 
Q 834 538 1309 538 
Q 1922 538 1922 884 
Q 1922 1125 1438 1291 
Q 731 1528 540 1758 
Q 350 1988 350 2347 
Q 350 2822 737 3092 
Q 1125 3363 1734 3363 
Q 2159 3363 2584 3228 
L 2584 2519 
Q 2200 2747 1744 2747 
Q 1503 2747 1356 2656 
Q 1209 2566 1209 2416 
Q 1209 2169 1619 2025 
Q 2084 1856 2303 1742 
Q 2522 1628 2644 1431 
Q 2766 1234 2766 969 
Q 2766 469 2367 194 
Q 1969 -81 1316 -81 
Q 766 -81 347 94 
L 347 844 
z
" transform="scale(0.015625)"/>
      <path id="MalgunGothicBold-4e" d="M 444 0 
L 444 4859 
L 1313 4859 
L 1313 0 
L 444 0 
z
" transform="scale(0.015625)"/>
      <path id="MalgunGothicBold-57" d="M 3444 0 
L 2575 0 
L 2575 506 
L 2559 506 
Q 2197 -81 1553 -81 
Q 400 -81 400 1306 
L 400 3284 
L 1272 3284 
L 1272 1397 
Q 1272 600 1891 600 
Q 2194 600 2384 817 
Q 2575 1034 2575 1400 
L 2575 3284 
L 3444 3284 
L 3444 0 
z
" transform="scale(0.015625)"/>
     </defs>
     <use xlink:href="#MalgunGothicBold-25"/>
     <use xlink:href="#MalgunGothicBold-51" transform="translate(63.875 0)"/>
     <use xlink:href="#MalgunGothicBold-54" transform="translate(125.84375 0)"/>
     <use xlink:href="#MalgunGothicBold-56" transform="translate(168.28125 0)"/>
     <use xlink:href="#MalgunGothicBold-3" transform="translate(206.703125 0)"/>
     <use xlink:href="#MalgunGothicBold-23" transform="translate(241.859375 0)"/>
     <use xlink:href="#MalgunGothicBold-45" transform="translate(312.21875 0)"/>
     <use xlink:href="#MalgunGothicBold-56" transform="translate(360.953125 0)"/>
     <use xlink:href="#MalgunGothicBold-4b" transform="translate(399.375 0)"/>
     <use xlink:href="#MalgunGothicBold-51" transform="translate(426.8125 0)"/>
     <use xlink:href="#MalgunGothicBold-50" transform="translate(488.78125 0)"/>
     <use xlink:href="#MalgunGothicBold-3" transform="translate(549.625 0)"/>
     <use xlink:href="#MalgunGothicBold-24" transform="translate(584.78125 0)"/>
     <use xlink:href="#MalgunGothicBold-43" transform="translate(648.5 0)"/>
     <use xlink:href="#MalgunGothicBold-55" transform="translate(702.796875 0)"/>
     <use xlink:href="#MalgunGothicBold-55" transform="translate(748.984375 0)"/>
     <use xlink:href="#MalgunGothicBold-3" transform="translate(795.171875 0)"/>
     <use xlink:href="#MalgunGothicBold-32" transform="translate(830.328125 0)"/>
     <use xlink:href="#MalgunGothicBold-4e" transform="translate(891.796875 0)"/>
     <use xlink:href="#MalgunGothicBold-57" transform="translate(919.234375 0)"/>
     <use xlink:href="#MalgunGothicBold-55" transform="translate(980.078125 0)"/>
    </g>
   </g>
   <g id="text_12">
    <!-- 0/23건 -->
    <g style="fill: #3987e5" transform="translate(600.679219 247.731298) scale(0.17 -0.17)">
     <use xlink:href="#MalgunGothic-13"/>
     <use xlink:href="#MalgunGothic-12" transform="translate(55.078125 0)"/>
     <use xlink:href="#MalgunGothic-15" transform="translate(94.671875 0)"/>
     <use xlink:href="#MalgunGothic-16" transform="translate(149.75 0)"/>
     <use xlink:href="#MalgunGothic-2a2" transform="translate(204.828125 0)"/>
    </g>
   </g>
  </g>
 </g>
 <defs>
  <clipPath id="p804a0bce38">
   <rect x="10.8" y="35.275692" width="190.982143" height="123.576681"/>
  </clipPath>
  <clipPath id="p515239f7e1">
   <rect x="236.158929" y="35.275692" width="190.982143" height="123.576681"/>
  </clipPath>
  <clipPath id="p7cf47c9c9f">
   <rect x="461.517857" y="35.275692" width="190.982143" height="123.576681"/>
  </clipPath>
  <clipPath id="p9cf6417a0c">
   <rect x="10.8" y="257.687927" width="190.982143" height="123.576681"/>
  </clipPath>
  <clipPath id="pbb57687225">
   <rect x="236.158929" y="257.687927" width="190.982143" height="123.576681"/>
  </clipPath>
  <clipPath id="p61ca834f4e">
   <rect x="461.517857" y="257.687927" width="190.982143" height="123.576681"/>
  </clipPath>
 </defs>
</svg>
